<svg width="641" height="402" viewBox="0 0 641 402" fill="none" xmlns="http://www.w3.org/2000/svg">
<g clip-path="url(#clip0_1720_39195)">
<rect x="0.935547" y="0.869629" width="639.989" height="400.261" rx="10.7022" fill="#EDEAE4"/>
<rect x="0.935547" y="0.869629" width="639.989" height="12.8426" fill="#4A4848"/>
<rect x="12.707" y="5.15045" width="4.28086" height="4.28086" rx="2.14043" fill="#C52925"/>
<rect x="21.2695" y="5.15045" width="4.28086" height="4.28086" rx="2.14043" fill="#EDEAE4"/>
<rect x="29.832" y="5.15045" width="4.28086" height="4.28086" rx="2.14043" fill="#458846"/>
<path fill-rule="evenodd" clip-rule="evenodd" d="M252.976 205.383C253.129 205.241 253.349 205.201 253.542 205.28L269.945 211.971C270.15 212.055 270.283 212.257 270.278 212.478C270.273 212.7 270.131 212.896 269.922 212.97L262.46 215.627L259.237 222.863C259.146 223.065 258.94 223.191 258.719 223.179C258.497 223.167 258.306 223.02 258.238 222.808L252.83 205.939C252.767 205.741 252.823 205.524 252.976 205.383ZM258.829 221.146L261.575 214.982C261.635 214.848 261.747 214.744 261.885 214.695L268.242 212.432L254.199 206.704L258.829 221.146Z" fill="#202020"/>
<path d="M258.829 221.146L261.575 214.982C261.635 214.848 261.747 214.744 261.885 214.695L268.242 212.432L254.199 206.704L258.829 221.146Z" fill="white"/>
<rect x="110.098" y="121.804" width="111.302" height="31.6954" rx="3.4782" fill="white"/>
<path d="M142.433 132.26H143.704L146.944 140.324L150.178 132.26H151.455L147.433 142.152H146.441L142.433 132.26ZM142.019 132.26H143.14L143.323 138.293V142.152H142.019V132.26ZM150.742 132.26H151.862V142.152H150.558V138.293L150.742 132.26ZM155.341 134.801V142.152H154.077V134.801H155.341ZM153.982 132.851C153.982 132.648 154.043 132.476 154.165 132.335C154.292 132.195 154.478 132.125 154.722 132.125C154.962 132.125 155.146 132.195 155.273 132.335C155.404 132.476 155.47 132.648 155.47 132.851C155.47 133.046 155.404 133.214 155.273 133.354C155.146 133.49 154.962 133.558 154.722 133.558C154.478 133.558 154.292 133.49 154.165 133.354C154.043 133.214 153.982 133.046 153.982 132.851ZM158.615 136.37V142.152H157.358V134.801H158.547L158.615 136.37ZM158.316 138.198L157.793 138.177C157.798 137.675 157.872 137.211 158.017 136.785C158.162 136.355 158.366 135.981 158.629 135.664C158.891 135.347 159.204 135.102 159.566 134.93C159.933 134.754 160.338 134.665 160.782 134.665C161.144 134.665 161.47 134.715 161.76 134.815C162.05 134.91 162.297 135.064 162.501 135.277C162.709 135.49 162.868 135.766 162.976 136.106C163.085 136.441 163.139 136.851 163.139 137.335V142.152H161.876V137.322C161.876 136.937 161.819 136.629 161.706 136.398C161.593 136.162 161.427 135.992 161.21 135.888C160.993 135.779 160.725 135.725 160.408 135.725C160.096 135.725 159.811 135.791 159.552 135.922C159.299 136.053 159.079 136.235 158.894 136.466C158.712 136.697 158.57 136.961 158.466 137.26C158.366 137.555 158.316 137.867 158.316 138.198ZM166.414 134.801V142.152H165.15V134.801H166.414ZM165.055 132.851C165.055 132.648 165.116 132.476 165.239 132.335C165.365 132.195 165.551 132.125 165.796 132.125C166.036 132.125 166.219 132.195 166.346 132.335C166.477 132.476 166.543 132.648 166.543 132.851C166.543 133.046 166.477 133.214 166.346 133.354C166.219 133.49 166.036 133.558 165.796 133.558C165.551 133.558 165.365 133.49 165.239 133.354C165.116 133.214 165.055 133.046 165.055 132.851ZM169.681 136.262V142.152H168.418V134.801H169.613L169.681 136.262ZM169.423 138.198L168.839 138.177C168.844 137.675 168.909 137.211 169.036 136.785C169.163 136.355 169.351 135.981 169.6 135.664C169.849 135.347 170.159 135.102 170.531 134.93C170.902 134.754 171.332 134.665 171.821 134.665C172.166 134.665 172.483 134.715 172.772 134.815C173.062 134.91 173.314 135.062 173.526 135.27C173.739 135.478 173.905 135.745 174.022 136.072C174.14 136.398 174.199 136.792 174.199 137.254V142.152H172.942V137.315C172.942 136.93 172.877 136.622 172.745 136.391C172.618 136.16 172.437 135.992 172.202 135.888C171.966 135.779 171.69 135.725 171.373 135.725C171.002 135.725 170.691 135.791 170.442 135.922C170.193 136.053 169.994 136.235 169.844 136.466C169.695 136.697 169.586 136.961 169.518 137.26C169.455 137.555 169.423 137.867 169.423 138.198ZM174.185 137.505L173.343 137.763C173.348 137.36 173.413 136.973 173.54 136.601C173.671 136.23 173.859 135.899 174.104 135.61C174.353 135.32 174.659 135.091 175.021 134.923C175.383 134.751 175.798 134.665 176.264 134.665C176.658 134.665 177.007 134.717 177.31 134.822C177.618 134.926 177.876 135.087 178.085 135.304C178.298 135.517 178.458 135.791 178.567 136.126C178.676 136.461 178.73 136.86 178.73 137.322V142.152H177.467V137.308C177.467 136.896 177.401 136.577 177.27 136.35C177.143 136.119 176.962 135.958 176.726 135.868C176.495 135.773 176.219 135.725 175.897 135.725C175.621 135.725 175.377 135.773 175.164 135.868C174.951 135.963 174.772 136.094 174.627 136.262C174.482 136.425 174.371 136.613 174.294 136.826C174.222 137.038 174.185 137.265 174.185 137.505ZM184.966 140.895V137.111C184.966 136.821 184.908 136.57 184.79 136.357C184.677 136.139 184.505 135.972 184.274 135.854C184.043 135.736 183.757 135.678 183.418 135.678C183.101 135.678 182.822 135.732 182.582 135.841C182.346 135.949 182.161 136.092 182.025 136.269C181.894 136.445 181.828 136.635 181.828 136.839H180.571C180.571 136.577 180.639 136.316 180.775 136.058C180.911 135.8 181.106 135.567 181.359 135.358C181.617 135.145 181.925 134.978 182.283 134.856C182.645 134.729 183.048 134.665 183.492 134.665C184.027 134.665 184.498 134.756 184.905 134.937C185.317 135.118 185.639 135.392 185.87 135.759C186.105 136.121 186.223 136.577 186.223 137.125V140.548C186.223 140.793 186.244 141.053 186.284 141.33C186.33 141.606 186.395 141.844 186.481 142.043V142.152H185.17C185.107 142.007 185.057 141.814 185.021 141.574C184.985 141.33 184.966 141.103 184.966 140.895ZM185.184 137.695L185.197 138.578H183.927C183.569 138.578 183.25 138.608 182.969 138.667C182.688 138.721 182.453 138.805 182.263 138.918C182.072 139.031 181.928 139.174 181.828 139.346C181.728 139.514 181.678 139.711 181.678 139.937C181.678 140.168 181.731 140.379 181.835 140.569C181.939 140.759 182.095 140.911 182.303 141.024C182.516 141.133 182.777 141.187 183.085 141.187C183.47 141.187 183.809 141.105 184.104 140.942C184.398 140.779 184.631 140.58 184.803 140.345C184.98 140.109 185.075 139.88 185.089 139.658L185.625 140.263C185.594 140.453 185.508 140.664 185.367 140.895C185.227 141.126 185.039 141.348 184.803 141.561C184.572 141.769 184.296 141.943 183.975 142.084C183.658 142.22 183.3 142.287 182.901 142.287C182.403 142.287 181.966 142.19 181.59 141.995C181.219 141.801 180.929 141.54 180.721 141.214C180.517 140.884 180.415 140.514 180.415 140.107C180.415 139.713 180.492 139.366 180.646 139.067C180.8 138.764 181.022 138.513 181.312 138.313C181.601 138.11 181.95 137.956 182.358 137.851C182.765 137.747 183.221 137.695 183.723 137.695H185.184ZM189.566 131.717V142.152H188.302V131.717H189.566Z" fill="#202020"/>
<rect x="110.098" y="159.921" width="111.302" height="31.6954" rx="3.4782" fill="white"/>
<path d="M121.571 170.377V180.268H120.26V170.377H121.571ZM125.715 174.827V175.9H121.285V174.827H125.715ZM126.387 170.377V171.451H121.285V170.377H126.387ZM127.277 176.675V176.518C127.277 175.988 127.354 175.497 127.508 175.044C127.662 174.587 127.884 174.191 128.174 173.855C128.464 173.516 128.815 173.253 129.227 173.067C129.639 172.877 130.101 172.782 130.613 172.782C131.129 172.782 131.593 172.877 132.005 173.067C132.422 173.253 132.775 173.516 133.065 173.855C133.36 174.191 133.584 174.587 133.738 175.044C133.892 175.497 133.969 175.988 133.969 176.518V176.675C133.969 177.205 133.892 177.696 133.738 178.149C133.584 178.602 133.36 178.998 133.065 179.338C132.775 179.673 132.424 179.935 132.012 180.126C131.605 180.311 131.143 180.404 130.626 180.404C130.11 180.404 129.646 180.311 129.234 180.126C128.822 179.935 128.468 179.673 128.174 179.338C127.884 178.998 127.662 178.602 127.508 178.149C127.354 177.696 127.277 177.205 127.277 176.675ZM128.534 176.518V176.675C128.534 177.041 128.577 177.388 128.663 177.714C128.749 178.036 128.878 178.321 129.05 178.57C129.227 178.819 129.447 179.016 129.709 179.161C129.972 179.301 130.278 179.372 130.626 179.372C130.971 179.372 131.272 179.301 131.53 179.161C131.793 179.016 132.01 178.819 132.182 178.57C132.354 178.321 132.483 178.036 132.569 177.714C132.66 177.388 132.705 177.041 132.705 176.675V176.518C132.705 176.156 132.66 175.814 132.569 175.493C132.483 175.166 132.352 174.879 132.175 174.63C132.003 174.376 131.786 174.177 131.523 174.032C131.265 173.887 130.962 173.815 130.613 173.815C130.269 173.815 129.965 173.887 129.702 174.032C129.444 174.177 129.227 174.376 129.05 174.63C128.878 174.879 128.749 175.166 128.663 175.493C128.577 175.814 128.534 176.156 128.534 176.518ZM136.802 174.073V180.268H135.545V172.918H136.768L136.802 174.073ZM139.098 172.877L139.091 174.046C138.987 174.023 138.887 174.009 138.792 174.005C138.701 173.996 138.597 173.991 138.479 173.991C138.19 173.991 137.934 174.037 137.712 174.127C137.49 174.218 137.302 174.344 137.148 174.508C136.994 174.671 136.872 174.865 136.781 175.092C136.695 175.314 136.638 175.558 136.611 175.825L136.258 176.029C136.258 175.585 136.301 175.169 136.387 174.779C136.478 174.39 136.616 174.046 136.802 173.747C136.987 173.443 137.223 173.208 137.508 173.04C137.798 172.868 138.142 172.782 138.541 172.782C138.631 172.782 138.735 172.793 138.853 172.816C138.971 172.834 139.052 172.854 139.098 172.877ZM144.356 170.377L146.924 175.343L149.498 170.377H150.986L147.576 176.573V180.268H146.265V176.573L142.854 170.377H144.356ZM151.285 176.675V176.518C151.285 175.988 151.362 175.497 151.516 175.044C151.67 174.587 151.892 174.191 152.182 173.855C152.472 173.516 152.823 173.253 153.235 173.067C153.647 172.877 154.109 172.782 154.621 172.782C155.137 172.782 155.601 172.877 156.013 173.067C156.43 173.253 156.783 173.516 157.073 173.855C157.367 174.191 157.591 174.587 157.745 175.044C157.899 175.497 157.976 175.988 157.976 176.518V176.675C157.976 177.205 157.899 177.696 157.745 178.149C157.591 178.602 157.367 178.998 157.073 179.338C156.783 179.673 156.432 179.935 156.02 180.126C155.612 180.311 155.15 180.404 154.634 180.404C154.118 180.404 153.654 180.311 153.241 180.126C152.829 179.935 152.476 179.673 152.182 179.338C151.892 178.998 151.67 178.602 151.516 178.149C151.362 177.696 151.285 177.205 151.285 176.675ZM152.542 176.518V176.675C152.542 177.041 152.585 177.388 152.671 177.714C152.757 178.036 152.886 178.321 153.058 178.57C153.235 178.819 153.454 179.016 153.717 179.161C153.98 179.301 154.285 179.372 154.634 179.372C154.978 179.372 155.279 179.301 155.538 179.161C155.8 179.016 156.018 178.819 156.19 178.57C156.362 178.321 156.491 178.036 156.577 177.714C156.668 177.388 156.713 177.041 156.713 176.675V176.518C156.713 176.156 156.668 175.814 156.577 175.493C156.491 175.166 156.36 174.879 156.183 174.63C156.011 174.376 155.794 174.177 155.531 174.032C155.273 173.887 154.969 173.815 154.621 173.815C154.276 173.815 153.973 173.887 153.71 174.032C153.452 174.177 153.235 174.376 153.058 174.63C152.886 174.879 152.757 175.166 152.671 175.493C152.585 175.814 152.542 176.156 152.542 176.518ZM164.05 178.57V172.918H165.313V180.268H164.111L164.05 178.57ZM164.287 177.021L164.811 177.007C164.811 177.497 164.758 177.95 164.654 178.366C164.555 178.778 164.392 179.136 164.165 179.44C163.939 179.743 163.642 179.981 163.275 180.153C162.908 180.32 162.462 180.404 161.937 180.404C161.579 180.404 161.251 180.352 160.952 180.248C160.658 180.144 160.404 179.983 160.191 179.766C159.978 179.548 159.813 179.265 159.695 178.916C159.582 178.568 159.525 178.149 159.525 177.66V172.918H160.782V177.673C160.782 178.004 160.818 178.278 160.891 178.495C160.968 178.708 161.07 178.878 161.196 179.005C161.328 179.127 161.473 179.213 161.631 179.263C161.794 179.313 161.962 179.338 162.134 179.338C162.668 179.338 163.092 179.236 163.404 179.032C163.717 178.824 163.941 178.545 164.077 178.196C164.217 177.843 164.287 177.451 164.287 177.021ZM168.486 174.487V180.268H167.229V172.918H168.418L168.486 174.487ZM168.187 176.315L167.664 176.294C167.668 175.791 167.743 175.327 167.888 174.902C168.033 174.471 168.237 174.098 168.499 173.781C168.762 173.464 169.075 173.219 169.437 173.047C169.804 172.87 170.209 172.782 170.653 172.782C171.015 172.782 171.341 172.832 171.631 172.931C171.921 173.027 172.168 173.181 172.372 173.393C172.58 173.606 172.738 173.883 172.847 174.222C172.956 174.557 173.01 174.967 173.01 175.452V180.268H171.747V175.438C171.747 175.053 171.69 174.745 171.577 174.514C171.464 174.279 171.298 174.109 171.081 174.005C170.863 173.896 170.596 173.842 170.279 173.842C169.967 173.842 169.681 173.907 169.423 174.039C169.17 174.17 168.95 174.351 168.764 174.582C168.583 174.813 168.44 175.078 168.336 175.377C168.237 175.671 168.187 175.984 168.187 176.315ZM179.681 172.918H180.823V180.112C180.823 180.76 180.691 181.312 180.429 181.77C180.166 182.227 179.799 182.574 179.328 182.809C178.862 183.049 178.323 183.169 177.711 183.169C177.458 183.169 177.159 183.128 176.814 183.047C176.475 182.97 176.14 182.836 175.809 182.646C175.483 182.46 175.209 182.209 174.987 181.892L175.646 181.145C175.954 181.516 176.275 181.774 176.611 181.919C176.95 182.064 177.285 182.136 177.616 182.136C178.015 182.136 178.359 182.062 178.649 181.912C178.938 181.763 179.163 181.541 179.321 181.247C179.484 180.957 179.566 180.599 179.566 180.173V174.535L179.681 172.918ZM174.62 176.675V176.532C174.62 175.97 174.686 175.461 174.817 175.003C174.953 174.542 175.146 174.145 175.395 173.815C175.648 173.484 175.954 173.23 176.312 173.054C176.67 172.873 177.073 172.782 177.521 172.782C177.983 172.782 178.386 172.864 178.73 173.027C179.079 173.185 179.373 173.418 179.613 173.726C179.858 174.03 180.05 174.397 180.191 174.827C180.331 175.257 180.429 175.744 180.483 176.287V176.912C180.433 177.451 180.336 177.936 180.191 178.366C180.05 178.796 179.858 179.163 179.613 179.467C179.373 179.77 179.079 180.003 178.73 180.166C178.381 180.325 177.974 180.404 177.507 180.404C177.068 180.404 176.67 180.311 176.312 180.126C175.958 179.94 175.655 179.68 175.401 179.344C175.148 179.009 174.953 178.615 174.817 178.162C174.686 177.705 174.62 177.209 174.62 176.675ZM175.877 176.532V176.675C175.877 177.041 175.913 177.386 175.986 177.707C176.063 178.029 176.178 178.312 176.332 178.556C176.491 178.801 176.692 178.993 176.937 179.134C177.181 179.27 177.473 179.338 177.813 179.338C178.23 179.338 178.574 179.249 178.846 179.073C179.117 178.896 179.333 178.663 179.491 178.373C179.654 178.083 179.781 177.768 179.871 177.429V175.791C179.822 175.542 179.745 175.302 179.64 175.071C179.541 174.836 179.409 174.628 179.246 174.446C179.088 174.261 178.891 174.114 178.655 174.005C178.42 173.896 178.144 173.842 177.827 173.842C177.482 173.842 177.186 173.914 176.937 174.059C176.692 174.2 176.491 174.394 176.332 174.643C176.178 174.888 176.063 175.173 175.986 175.499C175.913 175.821 175.877 176.165 175.877 176.532ZM187.684 170.377V180.268H186.373V170.377H187.684ZM193.655 170.377L189.545 174.99L187.235 177.388L187.018 175.988L188.757 174.073L192.079 170.377H193.655ZM192.392 180.268L188.73 175.445L189.511 174.406L193.954 180.268H192.392ZM196.284 172.918V180.268H195.021V172.918H196.284ZM194.926 170.968C194.926 170.764 194.987 170.592 195.109 170.452C195.236 170.312 195.421 170.241 195.666 170.241C195.906 170.241 196.089 170.312 196.216 170.452C196.348 170.592 196.413 170.764 196.413 170.968C196.413 171.163 196.348 171.331 196.216 171.471C196.089 171.607 195.906 171.675 195.666 171.675C195.421 171.675 195.236 171.607 195.109 171.471C194.987 171.331 194.926 171.163 194.926 170.968ZM202.935 178.842V169.834H204.198V180.268H203.044L202.935 178.842ZM197.989 176.675V176.532C197.989 175.97 198.057 175.461 198.193 175.003C198.334 174.542 198.531 174.145 198.784 173.815C199.042 173.484 199.348 173.23 199.701 173.054C200.059 172.873 200.458 172.782 200.897 172.782C201.359 172.782 201.762 172.864 202.106 173.027C202.455 173.185 202.749 173.418 202.989 173.726C203.234 174.03 203.426 174.397 203.567 174.827C203.707 175.257 203.804 175.744 203.859 176.287V176.912C203.809 177.451 203.712 177.936 203.567 178.366C203.426 178.796 203.234 179.163 202.989 179.467C202.749 179.77 202.455 180.003 202.106 180.166C201.757 180.325 201.35 180.404 200.883 180.404C200.453 180.404 200.059 180.311 199.701 180.126C199.348 179.94 199.042 179.68 198.784 179.344C198.531 179.009 198.334 178.615 198.193 178.162C198.057 177.705 197.989 177.209 197.989 176.675ZM199.253 176.532V176.675C199.253 177.041 199.289 177.386 199.362 177.707C199.439 178.029 199.556 178.312 199.715 178.556C199.873 178.801 200.075 178.993 200.319 179.134C200.564 179.27 200.856 179.338 201.196 179.338C201.612 179.338 201.954 179.249 202.222 179.073C202.493 178.896 202.711 178.663 202.874 178.373C203.037 178.083 203.164 177.768 203.254 177.429V175.791C203.2 175.542 203.121 175.302 203.016 175.071C202.917 174.836 202.785 174.628 202.622 174.446C202.464 174.261 202.267 174.114 202.031 174.005C201.8 173.896 201.526 173.842 201.209 173.842C200.865 173.842 200.569 173.914 200.319 174.059C200.075 174.2 199.873 174.394 199.715 174.643C199.556 174.888 199.439 175.173 199.362 175.499C199.289 175.821 199.253 176.165 199.253 176.532ZM210.435 178.319C210.435 178.137 210.394 177.97 210.313 177.816C210.236 177.657 210.075 177.515 209.83 177.388C209.59 177.257 209.228 177.143 208.743 177.048C208.336 176.962 207.967 176.86 207.636 176.743C207.31 176.625 207.031 176.482 206.8 176.315C206.574 176.147 206.4 175.95 206.277 175.724C206.155 175.497 206.094 175.232 206.094 174.929C206.094 174.639 206.157 174.365 206.284 174.107C206.415 173.849 206.599 173.62 206.834 173.421C207.074 173.221 207.362 173.065 207.697 172.952C208.032 172.839 208.406 172.782 208.818 172.782C209.407 172.782 209.909 172.886 210.326 173.095C210.743 173.303 211.062 173.581 211.284 173.93C211.506 174.274 211.617 174.657 211.617 175.078H210.36C210.36 174.874 210.299 174.677 210.177 174.487C210.059 174.292 209.885 174.132 209.654 174.005C209.427 173.878 209.149 173.815 208.818 173.815C208.469 173.815 208.186 173.869 207.969 173.978C207.756 174.082 207.6 174.215 207.5 174.378C207.405 174.542 207.357 174.714 207.357 174.895C207.357 175.031 207.38 175.153 207.425 175.262C207.475 175.366 207.561 175.463 207.683 175.554C207.806 175.64 207.978 175.721 208.2 175.798C208.422 175.875 208.705 175.952 209.049 176.029C209.651 176.165 210.147 176.328 210.537 176.518C210.926 176.709 211.216 176.942 211.406 177.218C211.596 177.494 211.692 177.829 211.692 178.224C211.692 178.545 211.624 178.839 211.488 179.107C211.356 179.374 211.164 179.605 210.91 179.8C210.661 179.99 210.362 180.139 210.014 180.248C209.669 180.352 209.282 180.404 208.852 180.404C208.204 180.404 207.656 180.289 207.208 180.058C206.76 179.827 206.42 179.528 206.189 179.161C205.958 178.794 205.842 178.407 205.842 177.999H207.106C207.124 178.344 207.224 178.618 207.405 178.821C207.586 179.021 207.808 179.163 208.071 179.249C208.333 179.331 208.594 179.372 208.852 179.372C209.196 179.372 209.484 179.326 209.715 179.236C209.95 179.145 210.129 179.021 210.251 178.862C210.374 178.704 210.435 178.522 210.435 178.319Z" fill="#202020"/>
<rect x="110.098" y="198.037" width="111.302" height="31.6954" rx="3.4782" fill="white"/>
<path d="M142.719 217.318V218.385H137.773V217.318H142.719ZM138.031 208.494V218.385H136.72V208.494H138.031ZM148.228 216.687V211.034H149.492V218.385H148.289L148.228 216.687ZM148.466 215.138L148.989 215.124C148.989 215.613 148.937 216.066 148.833 216.483C148.733 216.895 148.57 217.253 148.343 217.556C148.117 217.86 147.82 218.097 147.454 218.269C147.087 218.437 146.641 218.521 146.115 218.521C145.757 218.521 145.429 218.469 145.13 218.365C144.836 218.26 144.582 218.1 144.369 217.882C144.156 217.665 143.991 217.382 143.873 217.033C143.76 216.684 143.704 216.265 143.704 215.776V211.034H144.96V215.79C144.96 216.12 144.997 216.394 145.069 216.612C145.146 216.825 145.248 216.995 145.375 217.121C145.506 217.244 145.651 217.33 145.81 217.379C145.973 217.429 146.14 217.454 146.312 217.454C146.847 217.454 147.27 217.352 147.583 217.148C147.895 216.94 148.119 216.662 148.255 216.313C148.396 215.96 148.466 215.568 148.466 215.138ZM152.256 211.034L153.866 213.711L155.497 211.034H156.971L154.566 214.662L157.046 218.385H155.592L153.894 215.627L152.195 218.385H150.735L153.208 214.662L150.809 211.034H152.256ZM162.807 216.687V211.034H164.07V218.385H162.868L162.807 216.687ZM163.044 215.138L163.567 215.124C163.567 215.613 163.515 216.066 163.411 216.483C163.311 216.895 163.148 217.253 162.922 217.556C162.696 217.86 162.399 218.097 162.032 218.269C161.665 218.437 161.219 218.521 160.694 218.521C160.336 218.521 160.008 218.469 159.709 218.365C159.414 218.26 159.161 218.1 158.948 217.882C158.735 217.665 158.57 217.382 158.452 217.033C158.339 216.684 158.282 216.265 158.282 215.776V211.034H159.539V215.79C159.539 216.12 159.575 216.394 159.648 216.612C159.725 216.825 159.826 216.995 159.953 217.121C160.085 217.244 160.23 217.33 160.388 217.379C160.551 217.429 160.719 217.454 160.891 217.454C161.425 217.454 161.849 217.352 162.161 217.148C162.474 216.94 162.698 216.662 162.834 216.313C162.974 215.96 163.044 215.568 163.044 215.138ZM167.243 212.189V218.385H165.986V211.034H167.209L167.243 212.189ZM169.539 210.994L169.532 212.162C169.428 212.14 169.328 212.126 169.233 212.121C169.142 212.112 169.038 212.108 168.921 212.108C168.631 212.108 168.375 212.153 168.153 212.244C167.931 212.334 167.743 212.461 167.589 212.624C167.435 212.787 167.313 212.982 167.222 213.208C167.136 213.43 167.08 213.675 167.052 213.942L166.699 214.146C166.699 213.702 166.742 213.285 166.828 212.896C166.919 212.506 167.057 212.162 167.243 211.863C167.428 211.56 167.664 211.324 167.949 211.157C168.239 210.985 168.583 210.899 168.982 210.899C169.072 210.899 169.176 210.91 169.294 210.933C169.412 210.951 169.493 210.971 169.539 210.994ZM172.066 211.034V218.385H170.802V211.034H172.066ZM170.707 209.085C170.707 208.881 170.768 208.709 170.891 208.568C171.017 208.428 171.203 208.358 171.448 208.358C171.688 208.358 171.871 208.428 171.998 208.568C172.129 208.709 172.195 208.881 172.195 209.085C172.195 209.28 172.129 209.447 171.998 209.587C171.871 209.723 171.688 209.791 171.448 209.791C171.203 209.791 171.017 209.723 170.891 209.587C170.768 209.447 170.707 209.28 170.707 209.085ZM173.751 214.791V214.635C173.751 214.105 173.828 213.614 173.982 213.161C174.136 212.703 174.358 212.307 174.647 211.972C174.937 211.632 175.288 211.37 175.7 211.184C176.112 210.994 176.574 210.899 177.086 210.899C177.602 210.899 178.067 210.994 178.479 211.184C178.895 211.37 179.249 211.632 179.539 211.972C179.833 212.307 180.057 212.703 180.211 213.161C180.365 213.614 180.442 214.105 180.442 214.635V214.791C180.442 215.321 180.365 215.812 180.211 216.265C180.057 216.718 179.833 217.115 179.539 217.454C179.249 217.789 178.898 218.052 178.486 218.242C178.078 218.428 177.616 218.521 177.1 218.521C176.583 218.521 176.119 218.428 175.707 218.242C175.295 218.052 174.942 217.789 174.647 217.454C174.358 217.115 174.136 216.718 173.982 216.265C173.828 215.812 173.751 215.321 173.751 214.791ZM175.007 214.635V214.791C175.007 215.158 175.05 215.505 175.136 215.831C175.223 216.152 175.352 216.437 175.524 216.687C175.7 216.936 175.92 217.133 176.183 217.278C176.445 217.418 176.751 217.488 177.1 217.488C177.444 217.488 177.745 217.418 178.003 217.278C178.266 217.133 178.483 216.936 178.655 216.687C178.828 216.437 178.957 216.152 179.043 215.831C179.133 215.505 179.179 215.158 179.179 214.791V214.635C179.179 214.273 179.133 213.931 179.043 213.609C178.957 213.283 178.825 212.995 178.649 212.746C178.477 212.493 178.259 212.294 177.996 212.149C177.738 212.004 177.435 211.931 177.086 211.931C176.742 211.931 176.439 212.004 176.176 212.149C175.918 212.294 175.7 212.493 175.524 212.746C175.352 212.995 175.223 213.283 175.136 213.609C175.05 213.931 175.007 214.273 175.007 214.635ZM186.515 216.687V211.034H187.779V218.385H186.576L186.515 216.687ZM186.753 215.138L187.276 215.124C187.276 215.613 187.224 216.066 187.12 216.483C187.02 216.895 186.857 217.253 186.631 217.556C186.404 217.86 186.108 218.097 185.741 218.269C185.374 218.437 184.928 218.521 184.403 218.521C184.045 218.521 183.716 218.469 183.418 218.365C183.123 218.26 182.87 218.1 182.657 217.882C182.444 217.665 182.279 217.382 182.161 217.033C182.048 216.684 181.991 216.265 181.991 215.776V211.034H183.248V215.79C183.248 216.12 183.284 216.394 183.356 216.612C183.433 216.825 183.535 216.995 183.662 217.121C183.793 217.244 183.938 217.33 184.097 217.379C184.26 217.429 184.428 217.454 184.6 217.454C185.134 217.454 185.557 217.352 185.87 217.148C186.182 216.94 186.407 216.662 186.543 216.313C186.683 215.96 186.753 215.568 186.753 215.138ZM193.974 216.435C193.974 216.254 193.934 216.086 193.852 215.932C193.775 215.774 193.614 215.631 193.37 215.505C193.13 215.373 192.768 215.26 192.283 215.165C191.875 215.079 191.506 214.977 191.176 214.859C190.85 214.741 190.571 214.599 190.34 214.431C190.114 214.264 189.939 214.067 189.817 213.84C189.695 213.614 189.634 213.349 189.634 213.045C189.634 212.755 189.697 212.481 189.824 212.223C189.955 211.965 190.138 211.736 190.374 211.537C190.614 211.338 190.902 211.182 191.237 211.068C191.572 210.955 191.946 210.899 192.358 210.899C192.946 210.899 193.449 211.003 193.866 211.211C194.282 211.419 194.602 211.698 194.824 212.047C195.046 212.391 195.157 212.774 195.157 213.195H193.9C193.9 212.991 193.839 212.794 193.716 212.604C193.599 212.409 193.424 212.248 193.193 212.121C192.967 211.995 192.688 211.931 192.358 211.931C192.009 211.931 191.726 211.986 191.508 212.094C191.296 212.198 191.139 212.332 191.04 212.495C190.945 212.658 190.897 212.83 190.897 213.011C190.897 213.147 190.92 213.269 190.965 213.378C191.015 213.482 191.101 213.58 191.223 213.67C191.345 213.756 191.518 213.838 191.739 213.915C191.961 213.992 192.244 214.069 192.589 214.146C193.191 214.282 193.687 214.445 194.076 214.635C194.466 214.825 194.756 215.058 194.946 215.335C195.136 215.611 195.231 215.946 195.231 216.34C195.231 216.662 195.163 216.956 195.027 217.223C194.896 217.49 194.704 217.721 194.45 217.916C194.201 218.106 193.902 218.256 193.553 218.365C193.209 218.469 192.822 218.521 192.392 218.521C191.744 218.521 191.196 218.405 190.748 218.174C190.299 217.943 189.96 217.644 189.729 217.278C189.498 216.911 189.382 216.524 189.382 216.116H190.646C190.664 216.46 190.763 216.734 190.945 216.938C191.126 217.137 191.348 217.28 191.61 217.366C191.873 217.447 192.133 217.488 192.392 217.488C192.736 217.488 193.023 217.443 193.254 217.352C193.49 217.262 193.669 217.137 193.791 216.979C193.913 216.82 193.974 216.639 193.974 216.435Z" fill="#202020"/>
<rect x="110.098" y="236.154" width="111.302" height="31.6954" rx="3.4782" fill="white"/>
<path d="M144.512 253.356H145.816C145.748 253.981 145.569 254.541 145.28 255.034C144.99 255.528 144.58 255.92 144.05 256.209C143.52 256.495 142.859 256.637 142.066 256.637C141.487 256.637 140.959 256.529 140.484 256.311C140.013 256.094 139.607 255.786 139.268 255.387C138.928 254.984 138.665 254.502 138.479 253.94C138.298 253.374 138.208 252.745 138.208 252.052V251.067C138.208 250.374 138.298 249.747 138.479 249.185C138.665 248.619 138.93 248.134 139.274 247.731C139.623 247.328 140.042 247.018 140.531 246.801C141.02 246.583 141.57 246.475 142.182 246.475C142.929 246.475 143.561 246.615 144.077 246.896C144.594 247.177 144.994 247.566 145.28 248.064C145.569 248.558 145.748 249.131 145.816 249.783H144.512C144.449 249.321 144.331 248.925 144.159 248.594C143.987 248.259 143.742 248.001 143.425 247.82C143.108 247.639 142.694 247.548 142.182 247.548C141.743 247.548 141.355 247.632 141.02 247.799C140.69 247.967 140.411 248.205 140.185 248.513C139.963 248.821 139.795 249.19 139.682 249.62C139.569 250.05 139.512 250.528 139.512 251.053V252.052C139.512 252.537 139.562 252.992 139.662 253.417C139.766 253.843 139.922 254.217 140.13 254.538C140.339 254.86 140.604 255.113 140.925 255.299C141.247 255.48 141.627 255.571 142.066 255.571C142.623 255.571 143.067 255.483 143.398 255.306C143.728 255.129 143.978 254.876 144.145 254.545C144.317 254.214 144.44 253.818 144.512 253.356ZM147.08 252.908V252.752C147.08 252.222 147.157 251.73 147.311 251.277C147.465 250.82 147.687 250.424 147.977 250.089C148.266 249.749 148.617 249.486 149.03 249.301C149.442 249.11 149.904 249.015 150.415 249.015C150.932 249.015 151.396 249.11 151.808 249.301C152.225 249.486 152.578 249.749 152.868 250.089C153.162 250.424 153.386 250.82 153.54 251.277C153.694 251.73 153.771 252.222 153.771 252.752V252.908C153.771 253.438 153.694 253.929 153.54 254.382C153.386 254.835 153.162 255.231 152.868 255.571C152.578 255.906 152.227 256.169 151.815 256.359C151.407 256.545 150.945 256.637 150.429 256.637C149.913 256.637 149.449 256.545 149.036 256.359C148.624 256.169 148.271 255.906 147.977 255.571C147.687 255.231 147.465 254.835 147.311 254.382C147.157 253.929 147.08 253.438 147.08 252.908ZM148.337 252.752V252.908C148.337 253.275 148.38 253.621 148.466 253.947C148.552 254.269 148.681 254.554 148.853 254.803C149.03 255.052 149.249 255.249 149.512 255.394C149.775 255.535 150.08 255.605 150.429 255.605C150.773 255.605 151.074 255.535 151.333 255.394C151.595 255.249 151.813 255.052 151.985 254.803C152.157 254.554 152.286 254.269 152.372 253.947C152.462 253.621 152.508 253.275 152.508 252.908V252.752C152.508 252.389 152.462 252.047 152.372 251.726C152.286 251.4 152.155 251.112 151.978 250.863C151.806 250.609 151.588 250.41 151.326 250.265C151.068 250.12 150.764 250.048 150.415 250.048C150.071 250.048 149.768 250.12 149.505 250.265C149.247 250.41 149.03 250.609 148.853 250.863C148.681 251.112 148.552 251.4 148.466 251.726C148.38 252.047 148.337 252.389 148.337 252.752ZM156.713 246.067V256.502H155.449V246.067H156.713ZM158.398 252.908V252.752C158.398 252.222 158.475 251.73 158.629 251.277C158.783 250.82 159.005 250.424 159.294 250.089C159.584 249.749 159.935 249.486 160.347 249.301C160.759 249.11 161.221 249.015 161.733 249.015C162.249 249.015 162.714 249.11 163.126 249.301C163.542 249.486 163.896 249.749 164.186 250.089C164.48 250.424 164.704 250.82 164.858 251.277C165.012 251.73 165.089 252.222 165.089 252.752V252.908C165.089 253.438 165.012 253.929 164.858 254.382C164.704 254.835 164.48 255.231 164.186 255.571C163.896 255.906 163.545 256.169 163.133 256.359C162.725 256.545 162.263 256.637 161.747 256.637C161.23 256.637 160.766 256.545 160.354 256.359C159.942 256.169 159.589 255.906 159.294 255.571C159.005 255.231 158.783 254.835 158.629 254.382C158.475 253.929 158.398 253.438 158.398 252.908ZM159.654 252.752V252.908C159.654 253.275 159.697 253.621 159.783 253.947C159.87 254.269 159.999 254.554 160.171 254.803C160.347 255.052 160.567 255.249 160.83 255.394C161.092 255.535 161.398 255.605 161.747 255.605C162.091 255.605 162.392 255.535 162.65 255.394C162.913 255.249 163.13 255.052 163.302 254.803C163.475 254.554 163.604 254.269 163.69 253.947C163.78 253.621 163.826 253.275 163.826 252.908V252.752C163.826 252.389 163.78 252.047 163.69 251.726C163.604 251.4 163.472 251.112 163.296 250.863C163.124 250.609 162.906 250.41 162.643 250.265C162.385 250.12 162.082 250.048 161.733 250.048C161.389 250.048 161.086 250.12 160.823 250.265C160.565 250.41 160.347 250.609 160.171 250.863C159.999 251.112 159.87 251.4 159.783 251.726C159.697 252.047 159.654 252.389 159.654 252.752ZM171.162 254.803V249.151H172.426V256.502H171.223L171.162 254.803ZM171.4 253.254L171.923 253.241C171.923 253.73 171.871 254.183 171.767 254.599C171.667 255.012 171.504 255.369 171.278 255.673C171.051 255.976 170.755 256.214 170.388 256.386C170.021 256.554 169.575 256.637 169.05 256.637C168.692 256.637 168.363 256.585 168.065 256.481C167.77 256.377 167.517 256.216 167.304 255.999C167.091 255.781 166.926 255.498 166.808 255.15C166.695 254.801 166.638 254.382 166.638 253.893V249.151H167.895V253.907C167.895 254.237 167.931 254.511 168.003 254.729C168.08 254.941 168.182 255.111 168.309 255.238C168.44 255.36 168.585 255.446 168.744 255.496C168.907 255.546 169.075 255.571 169.247 255.571C169.781 255.571 170.204 255.469 170.517 255.265C170.829 255.057 171.054 254.778 171.19 254.43C171.33 254.076 171.4 253.685 171.4 253.254ZM175.598 250.306V256.502H174.342V249.151H175.564L175.598 250.306ZM177.895 249.11L177.888 250.279C177.784 250.256 177.684 250.243 177.589 250.238C177.498 250.229 177.394 250.225 177.276 250.225C176.987 250.225 176.731 250.27 176.509 250.36C176.287 250.451 176.099 250.578 175.945 250.741C175.791 250.904 175.669 251.099 175.578 251.325C175.492 251.547 175.435 251.792 175.408 252.059L175.055 252.263C175.055 251.819 175.098 251.402 175.184 251.013C175.275 250.623 175.413 250.279 175.598 249.98C175.784 249.677 176.02 249.441 176.305 249.273C176.595 249.101 176.939 249.015 177.338 249.015C177.428 249.015 177.532 249.027 177.65 249.049C177.768 249.067 177.849 249.088 177.895 249.11ZM181.04 256.502H179.783V248.377C179.783 247.847 179.878 247.401 180.068 247.038C180.263 246.672 180.542 246.395 180.904 246.21C181.266 246.019 181.697 245.924 182.195 245.924C182.34 245.924 182.485 245.933 182.63 245.951C182.779 245.97 182.924 245.997 183.064 246.033L182.996 247.059C182.901 247.036 182.793 247.02 182.67 247.011C182.553 247.002 182.435 246.998 182.317 246.998C182.05 246.998 181.819 247.052 181.624 247.161C181.434 247.265 181.289 247.419 181.189 247.623C181.09 247.826 181.04 248.078 181.04 248.377V256.502ZM182.602 249.151V250.116H178.621V249.151H182.602ZM188.499 254.803V249.151H189.763V256.502H188.56L188.499 254.803ZM188.737 253.254L189.26 253.241C189.26 253.73 189.208 254.183 189.104 254.599C189.004 255.012 188.841 255.369 188.615 255.673C188.388 255.976 188.091 256.214 187.725 256.386C187.358 256.554 186.912 256.637 186.386 256.637C186.028 256.637 185.7 256.585 185.401 256.481C185.107 256.377 184.853 256.216 184.64 255.999C184.428 255.781 184.262 255.498 184.144 255.15C184.031 254.801 183.975 254.382 183.975 253.893V249.151H185.231V253.907C185.231 254.237 185.268 254.511 185.34 254.729C185.417 254.941 185.519 255.111 185.646 255.238C185.777 255.36 185.922 255.446 186.081 255.496C186.244 255.546 186.411 255.571 186.583 255.571C187.118 255.571 187.541 255.469 187.854 255.265C188.166 255.057 188.39 254.778 188.526 254.43C188.667 254.076 188.737 253.685 188.737 253.254ZM193.044 246.067V256.502H191.78V246.067H193.044Z" fill="#202020"/>
<rect x="110.098" y="274.271" width="111.302" height="31.6954" rx="3.4782" fill="white"/>
<path d="M143.452 284.727H144.723L147.963 292.791L151.197 284.727H152.474L148.452 294.618H147.46L143.452 284.727ZM143.038 284.727H144.159L144.342 290.76V294.618H143.038V284.727ZM151.761 284.727H152.881V294.618H151.577V290.76L151.761 284.727ZM154.661 291.025V290.868C154.661 290.338 154.738 289.847 154.892 289.394C155.046 288.937 155.268 288.54 155.558 288.205C155.848 287.866 156.199 287.603 156.611 287.417C157.023 287.227 157.485 287.132 157.997 287.132C158.513 287.132 158.977 287.227 159.389 287.417C159.806 287.603 160.159 287.866 160.449 288.205C160.744 288.54 160.968 288.937 161.122 289.394C161.276 289.847 161.353 290.338 161.353 290.868V291.025C161.353 291.554 161.276 292.046 161.122 292.499C160.968 292.952 160.744 293.348 160.449 293.688C160.159 294.023 159.808 294.285 159.396 294.476C158.989 294.661 158.527 294.754 158.01 294.754C157.494 294.754 157.03 294.661 156.618 294.476C156.206 294.285 155.852 294.023 155.558 293.688C155.268 293.348 155.046 292.952 154.892 292.499C154.738 292.046 154.661 291.554 154.661 291.025ZM155.918 290.868V291.025C155.918 291.391 155.961 291.738 156.047 292.064C156.133 292.386 156.262 292.671 156.434 292.92C156.611 293.169 156.831 293.366 157.093 293.511C157.356 293.651 157.662 293.722 158.01 293.722C158.355 293.722 158.656 293.651 158.914 293.511C159.177 293.366 159.394 293.169 159.566 292.92C159.738 292.671 159.867 292.386 159.953 292.064C160.044 291.738 160.089 291.391 160.089 291.025V290.868C160.089 290.506 160.044 290.164 159.953 289.843C159.867 289.516 159.736 289.229 159.559 288.98C159.387 288.726 159.17 288.527 158.907 288.382C158.649 288.237 158.346 288.165 157.997 288.165C157.653 288.165 157.349 288.237 157.087 288.382C156.828 288.527 156.611 288.726 156.434 288.98C156.262 289.229 156.133 289.516 156.047 289.843C155.961 290.164 155.918 290.506 155.918 290.868ZM167.562 293.192V284.184H168.825V294.618H167.671L167.562 293.192ZM162.616 291.025V290.882C162.616 290.32 162.684 289.811 162.82 289.353C162.961 288.891 163.158 288.495 163.411 288.165C163.669 287.834 163.975 287.58 164.328 287.404C164.686 287.223 165.085 287.132 165.524 287.132C165.986 287.132 166.389 287.214 166.733 287.377C167.082 287.535 167.376 287.768 167.616 288.076C167.861 288.38 168.053 288.747 168.194 289.177C168.334 289.607 168.431 290.094 168.486 290.637V291.262C168.436 291.801 168.339 292.286 168.194 292.716C168.053 293.146 167.861 293.513 167.616 293.817C167.376 294.12 167.082 294.353 166.733 294.516C166.384 294.675 165.977 294.754 165.51 294.754C165.08 294.754 164.686 294.661 164.328 294.476C163.975 294.29 163.669 294.03 163.411 293.694C163.158 293.359 162.961 292.965 162.82 292.512C162.684 292.055 162.616 291.559 162.616 291.025ZM163.88 290.882V291.025C163.88 291.391 163.916 291.736 163.989 292.057C164.066 292.379 164.183 292.662 164.342 292.906C164.5 293.151 164.702 293.343 164.946 293.484C165.191 293.62 165.483 293.688 165.823 293.688C166.239 293.688 166.581 293.599 166.849 293.423C167.12 293.246 167.338 293.013 167.501 292.723C167.664 292.433 167.791 292.118 167.881 291.779V290.141C167.827 289.892 167.748 289.652 167.643 289.421C167.544 289.186 167.412 288.978 167.249 288.796C167.091 288.611 166.894 288.464 166.658 288.355C166.427 288.246 166.153 288.192 165.836 288.192C165.492 288.192 165.196 288.264 164.946 288.409C164.702 288.55 164.5 288.744 164.342 288.993C164.183 289.238 164.066 289.523 163.989 289.849C163.916 290.171 163.88 290.515 163.88 290.882ZM173.832 294.754C173.32 294.754 172.856 294.668 172.44 294.496C172.027 294.319 171.672 294.073 171.373 293.756C171.079 293.439 170.852 293.063 170.694 292.628C170.535 292.193 170.456 291.718 170.456 291.201V290.916C170.456 290.318 170.544 289.786 170.721 289.319C170.897 288.848 171.137 288.45 171.441 288.124C171.744 287.798 172.089 287.551 172.473 287.383C172.858 287.216 173.257 287.132 173.669 287.132C174.194 287.132 174.647 287.223 175.028 287.404C175.413 287.585 175.727 287.839 175.972 288.165C176.217 288.486 176.398 288.867 176.516 289.306C176.633 289.741 176.692 290.216 176.692 290.732V291.296H171.203V290.271H175.435V290.175C175.417 289.849 175.349 289.532 175.232 289.224C175.118 288.916 174.937 288.663 174.688 288.464C174.439 288.264 174.099 288.165 173.669 288.165C173.384 288.165 173.121 288.226 172.881 288.348C172.641 288.466 172.435 288.642 172.263 288.878C172.091 289.113 171.957 289.401 171.862 289.741C171.767 290.08 171.719 290.472 171.719 290.916V291.201C171.719 291.55 171.767 291.878 171.862 292.186C171.962 292.49 172.104 292.757 172.29 292.988C172.48 293.219 172.709 293.4 172.976 293.531C173.248 293.663 173.556 293.728 173.9 293.728C174.344 293.728 174.72 293.638 175.028 293.457C175.336 293.275 175.605 293.033 175.836 292.73L176.597 293.334C176.439 293.574 176.237 293.803 175.992 294.02C175.748 294.238 175.447 294.414 175.089 294.55C174.736 294.686 174.317 294.754 173.832 294.754ZM179.416 288.423V294.618H178.16V287.268H179.382L179.416 288.423ZM181.712 287.227L181.706 288.396C181.601 288.373 181.502 288.359 181.407 288.355C181.316 288.346 181.212 288.341 181.094 288.341C180.804 288.341 180.549 288.387 180.327 288.477C180.105 288.568 179.917 288.694 179.763 288.858C179.609 289.021 179.486 289.215 179.396 289.442C179.31 289.664 179.253 289.908 179.226 290.175L178.873 290.379C178.873 289.935 178.916 289.519 179.002 289.129C179.092 288.74 179.231 288.396 179.416 288.097C179.602 287.793 179.837 287.558 180.123 287.39C180.413 287.218 180.757 287.132 181.155 287.132C181.246 287.132 181.35 287.143 181.468 287.166C181.586 287.184 181.667 287.204 181.712 287.227ZM184.131 288.837V294.618H182.874V287.268H184.063L184.131 288.837ZM183.832 290.665L183.309 290.644C183.313 290.141 183.388 289.677 183.533 289.252C183.678 288.821 183.882 288.448 184.144 288.131C184.407 287.814 184.72 287.569 185.082 287.397C185.449 287.22 185.854 287.132 186.298 287.132C186.66 287.132 186.986 287.182 187.276 287.281C187.566 287.377 187.813 287.531 188.017 287.743C188.225 287.956 188.384 288.233 188.492 288.572C188.601 288.907 188.655 289.317 188.655 289.802V294.618H187.392V289.788C187.392 289.403 187.335 289.095 187.222 288.864C187.109 288.629 186.943 288.459 186.726 288.355C186.509 288.246 186.241 288.192 185.924 288.192C185.612 288.192 185.327 288.257 185.068 288.389C184.815 288.52 184.595 288.701 184.409 288.932C184.228 289.163 184.086 289.428 183.981 289.727C183.882 290.021 183.832 290.334 183.832 290.665Z" fill="#202020"/>
<rect x="110.098" y="312.387" width="111.302" height="31.6954" rx="3.4782" fill="white"/>
<path d="M157.888 327.81V331.431C157.766 331.612 157.571 331.815 157.304 332.042C157.037 332.264 156.668 332.459 156.197 332.626C155.73 332.789 155.128 332.871 154.39 332.871C153.787 332.871 153.232 332.767 152.725 332.558C152.222 332.345 151.785 332.037 151.414 331.634C151.047 331.227 150.762 330.733 150.558 330.153C150.359 329.569 150.259 328.908 150.259 328.17V327.402C150.259 326.664 150.345 326.005 150.517 325.425C150.694 324.846 150.952 324.354 151.292 323.951C151.631 323.543 152.048 323.235 152.542 323.027C153.035 322.814 153.602 322.708 154.24 322.708C154.996 322.708 155.628 322.839 156.135 323.102C156.647 323.36 157.046 323.718 157.331 324.175C157.621 324.633 157.807 325.153 157.888 325.738H156.577C156.518 325.38 156.4 325.054 156.224 324.759C156.052 324.465 155.805 324.23 155.483 324.053C155.162 323.872 154.747 323.781 154.24 323.781C153.783 323.781 153.386 323.865 153.051 324.033C152.716 324.2 152.44 324.44 152.222 324.753C152.005 325.065 151.842 325.443 151.733 325.887C151.629 326.331 151.577 326.831 151.577 327.388V328.17C151.577 328.74 151.643 329.25 151.774 329.698C151.91 330.147 152.102 330.529 152.352 330.846C152.601 331.159 152.897 331.397 153.241 331.56C153.59 331.723 153.975 331.804 154.396 331.804C154.863 331.804 155.241 331.766 155.531 331.689C155.821 331.607 156.047 331.512 156.21 331.403C156.373 331.29 156.498 331.184 156.584 331.084V328.869H154.294V327.81H157.888ZM161.237 322.3V332.735H159.974V322.3H161.237ZM167.589 331.478V327.694C167.589 327.404 167.53 327.153 167.412 326.94C167.299 326.723 167.127 326.555 166.896 326.437C166.665 326.32 166.38 326.261 166.04 326.261C165.723 326.261 165.445 326.315 165.205 326.424C164.969 326.533 164.783 326.675 164.648 326.852C164.516 327.028 164.451 327.219 164.451 327.422H163.194C163.194 327.16 163.262 326.899 163.398 326.641C163.533 326.383 163.728 326.15 163.982 325.942C164.24 325.729 164.548 325.561 164.906 325.439C165.268 325.312 165.671 325.249 166.115 325.249C166.649 325.249 167.12 325.339 167.528 325.52C167.94 325.701 168.262 325.975 168.493 326.342C168.728 326.705 168.846 327.16 168.846 327.708V331.132C168.846 331.376 168.866 331.637 168.907 331.913C168.952 332.189 169.018 332.427 169.104 332.626V332.735H167.793C167.729 332.59 167.68 332.397 167.643 332.157C167.607 331.913 167.589 331.686 167.589 331.478ZM167.806 328.278L167.82 329.162H166.55C166.192 329.162 165.873 329.191 165.592 329.25C165.311 329.304 165.076 329.388 164.885 329.501C164.695 329.614 164.55 329.757 164.451 329.929C164.351 330.097 164.301 330.294 164.301 330.52C164.301 330.751 164.353 330.962 164.457 331.152C164.561 331.342 164.718 331.494 164.926 331.607C165.139 331.716 165.399 331.77 165.707 331.77C166.092 331.77 166.432 331.689 166.726 331.526C167.021 331.363 167.254 331.163 167.426 330.928C167.603 330.692 167.698 330.464 167.711 330.242L168.248 330.846C168.216 331.037 168.13 331.247 167.99 331.478C167.849 331.709 167.662 331.931 167.426 332.144C167.195 332.352 166.919 332.527 166.597 332.667C166.28 332.803 165.922 332.871 165.524 332.871C165.026 332.871 164.589 332.773 164.213 332.579C163.841 332.384 163.552 332.123 163.343 331.797C163.139 331.467 163.037 331.098 163.037 330.69C163.037 330.296 163.114 329.95 163.268 329.651C163.422 329.347 163.644 329.096 163.934 328.897C164.224 328.693 164.573 328.539 164.98 328.435C165.388 328.331 165.843 328.278 166.346 328.278H167.806ZM172.073 326.845V332.735H170.809V325.384H172.005L172.073 326.845ZM171.815 328.781L171.23 328.761C171.235 328.258 171.3 327.794 171.427 327.368C171.554 326.938 171.742 326.564 171.991 326.247C172.24 325.93 172.55 325.686 172.922 325.514C173.293 325.337 173.723 325.249 174.213 325.249C174.557 325.249 174.874 325.298 175.164 325.398C175.453 325.493 175.705 325.645 175.918 325.853C176.131 326.062 176.296 326.329 176.414 326.655C176.531 326.981 176.59 327.375 176.59 327.837V332.735H175.333V327.898C175.333 327.513 175.268 327.205 175.136 326.974C175.01 326.743 174.829 326.576 174.593 326.471C174.358 326.363 174.081 326.308 173.764 326.308C173.393 326.308 173.083 326.374 172.834 326.505C172.584 326.637 172.385 326.818 172.236 327.049C172.086 327.28 171.978 327.545 171.91 327.844C171.846 328.138 171.815 328.451 171.815 328.781ZM176.577 328.088L175.734 328.346C175.739 327.943 175.804 327.556 175.931 327.185C176.063 326.813 176.251 326.483 176.495 326.193C176.744 325.903 177.05 325.674 177.412 325.507C177.775 325.335 178.189 325.249 178.655 325.249C179.049 325.249 179.398 325.301 179.702 325.405C180.01 325.509 180.268 325.67 180.476 325.887C180.689 326.1 180.85 326.374 180.958 326.709C181.067 327.044 181.121 327.443 181.121 327.905V332.735H179.858V327.891C179.858 327.479 179.792 327.16 179.661 326.933C179.534 326.702 179.353 326.542 179.117 326.451C178.886 326.356 178.61 326.308 178.289 326.308C178.012 326.308 177.768 326.356 177.555 326.451C177.342 326.546 177.163 326.677 177.018 326.845C176.873 327.008 176.762 327.196 176.685 327.409C176.613 327.622 176.577 327.848 176.577 328.088Z" fill="#202020"/>
<circle cx="89.7631" cy="136.787" r="6.15374" fill="white" stroke="#202020" stroke-width="0.535108"/>
<circle cx="89.7631" cy="175.315" r="6.15374" fill="white" stroke="#202020" stroke-width="0.535108"/>
<circle cx="89.7631" cy="213.843" r="6.15374" fill="white" stroke="#202020" stroke-width="0.535108"/>
<circle cx="89.7631" cy="252.37" r="6.15374" fill="white" stroke="#202020" stroke-width="0.535108"/>
<circle cx="89.7631" cy="290.898" r="6.15374" fill="white" stroke="#202020" stroke-width="0.535108"/>
<circle cx="89.7631" cy="329.426" r="6.15374" fill="white" stroke="#202020" stroke-width="0.535108"/>
<path d="M90.7809 71.9862H86.8199V69.9064H90.7809C91.4707 69.9064 92.0281 69.7949 92.4532 69.5719C92.8782 69.349 93.1882 69.0424 93.3833 68.6522C93.5854 68.2551 93.6864 67.8022 93.6864 67.2935C93.6864 66.8128 93.5854 66.3634 93.3833 65.9453C93.1882 65.5203 92.8782 65.1789 92.4532 64.9211C92.0281 64.6633 91.4707 64.5344 90.7809 64.5344H87.6246V77.6613H85.0014V62.4441H90.7809C91.9585 62.4441 92.9583 62.6532 93.7805 63.0712C94.6096 63.4823 95.2402 64.0536 95.6722 64.7852C96.1041 65.5098 96.3201 66.339 96.3201 67.2726C96.3201 68.2551 96.1041 69.0981 95.6722 69.8019C95.2402 70.5056 94.6096 71.0456 93.7805 71.4218C92.9583 71.7981 91.9585 71.9862 90.7809 71.9862ZM101.117 66.3529V77.6613H98.5881V66.3529H101.117ZM98.4209 63.3847C98.4209 63.0015 98.5463 62.6845 98.7971 62.4337C99.0549 62.1759 99.4102 62.047 99.8631 62.047C100.309 62.047 100.661 62.1759 100.919 62.4337C101.177 62.6845 101.305 63.0015 101.305 63.3847C101.305 63.761 101.177 64.0745 100.919 64.3254C100.661 64.5762 100.309 64.7016 99.8631 64.7016C99.4102 64.7016 99.0549 64.5762 98.7971 64.3254C98.5463 64.0745 98.4209 63.761 98.4209 63.3847ZM108.496 75.8636C108.907 75.8636 109.276 75.7835 109.604 75.6232C109.938 75.456 110.206 75.2261 110.409 74.9335C110.618 74.6408 110.733 74.3029 110.753 73.9197H113.126C113.112 74.6513 112.896 75.3167 112.478 75.9159C112.06 76.5151 111.506 76.9924 110.816 77.3477C110.126 77.6961 109.363 77.8703 108.527 77.8703C107.663 77.8703 106.911 77.724 106.27 77.4313C105.629 77.1317 105.096 76.7206 104.671 76.1981C104.246 75.6755 103.925 75.0728 103.709 74.39C103.5 73.7072 103.396 72.9756 103.396 72.1952V71.8294C103.396 71.049 103.5 70.3175 103.709 69.6346C103.925 68.9448 104.246 68.3387 104.671 67.8161C105.096 67.2935 105.629 66.8859 106.27 66.5933C106.911 66.2937 107.66 66.1439 108.517 66.1439C109.423 66.1439 110.217 66.3251 110.9 66.6874C111.583 67.0427 112.119 67.5409 112.509 68.1819C112.906 68.8159 113.112 69.5545 113.126 70.3976H110.753C110.733 69.9795 110.628 69.6033 110.44 69.2688C110.259 68.9274 110.001 68.6557 109.666 68.4536C109.339 68.2516 108.945 68.1505 108.485 68.1505C107.977 68.1505 107.555 68.2551 107.221 68.4641C106.886 68.6661 106.625 68.9448 106.437 69.3002C106.249 69.6486 106.113 70.0422 106.029 70.4812C105.953 70.9132 105.914 71.3626 105.914 71.8294V72.1952C105.914 72.662 105.953 73.1149 106.029 73.5539C106.106 73.9928 106.238 74.3865 106.427 74.7349C106.622 75.0763 106.886 75.3515 107.221 75.5605C107.555 75.7626 107.98 75.8636 108.496 75.8636ZM117.599 61.608V77.6613H115.07V61.608H117.599ZM124.622 66.3529L119.7 71.8085L117.003 74.5677L116.345 72.4356L118.383 69.9168L121.581 66.3529H124.622ZM122.124 77.6613L118.456 72.352L120.045 70.5857L125.04 77.6613H122.124ZM137.927 75.3933V70.0004C137.927 69.5963 137.854 69.2479 137.707 68.9553C137.561 68.6627 137.338 68.4362 137.039 68.276C136.746 68.1157 136.377 68.0356 135.931 68.0356C135.52 68.0356 135.164 68.1053 134.865 68.2446C134.565 68.384 134.332 68.5721 134.164 68.809C133.997 69.0459 133.914 69.3141 133.914 69.6137H131.405C131.405 69.1678 131.513 68.7358 131.729 68.3178C131.945 67.8997 132.259 67.527 132.67 67.1995C133.081 66.872 133.572 66.6142 134.143 66.4261C134.715 66.238 135.356 66.1439 136.067 66.1439C136.917 66.1439 137.669 66.2867 138.324 66.5724C138.986 66.8581 139.505 67.2901 139.881 67.8684C140.264 68.4397 140.456 69.1574 140.456 70.0213V75.0484C140.456 75.564 140.491 76.0274 140.561 76.4384C140.637 76.8426 140.745 77.1944 140.885 77.494V77.6613H138.303C138.185 77.3895 138.091 77.0446 138.021 76.6266C137.958 76.2016 137.927 75.7905 137.927 75.3933ZM138.293 70.7843L138.314 72.3415H136.505C136.039 72.3415 135.628 72.3868 135.272 72.4774C134.917 72.561 134.621 72.6864 134.384 72.8536C134.147 73.0209 133.969 73.2229 133.851 73.4598C133.732 73.6967 133.673 73.965 133.673 74.2646C133.673 74.5642 133.743 74.8394 133.882 75.0902C134.022 75.3341 134.224 75.5257 134.488 75.6651C134.76 75.8044 135.088 75.8741 135.471 75.8741C135.986 75.8741 136.436 75.7696 136.819 75.5605C137.209 75.3445 137.516 75.0833 137.739 74.7767C137.962 74.4631 138.08 74.167 138.094 73.8883L138.909 75.0066C138.826 75.2923 138.683 75.5989 138.481 75.9263C138.279 76.2538 138.014 76.5673 137.686 76.867C137.366 77.1596 136.979 77.4 136.526 77.5881C136.08 77.7762 135.565 77.8703 134.98 77.8703C134.241 77.8703 133.583 77.724 133.004 77.4313C132.426 77.1317 131.973 76.7311 131.646 76.2294C131.318 75.7208 131.154 75.146 131.154 74.505C131.154 73.9057 131.266 73.3762 131.489 72.9164C131.719 72.4495 132.053 72.0593 132.492 71.7458C132.938 71.4323 133.482 71.1954 134.123 71.0351C134.764 70.8679 135.495 70.7843 136.317 70.7843H138.293ZM154.764 74.599C154.764 74.3482 154.701 74.1217 154.576 73.9197C154.45 73.7107 154.21 73.5225 153.855 73.3553C153.506 73.1881 152.991 73.0348 152.308 72.8955C151.709 72.7631 151.158 72.6063 150.657 72.4251C150.162 72.237 149.737 72.0106 149.382 71.7458C149.026 71.481 148.751 71.1675 148.556 70.8052C148.361 70.4429 148.263 70.0248 148.263 69.551C148.263 69.0912 148.364 68.6557 148.566 68.2446C148.768 67.8335 149.058 67.4712 149.434 67.1577C149.81 66.8441 150.266 66.5968 150.803 66.4156C151.346 66.2345 151.953 66.1439 152.621 66.1439C153.569 66.1439 154.381 66.3041 155.057 66.6247C155.739 66.9382 156.262 67.3667 156.624 67.9102C156.987 68.4467 157.168 69.0528 157.168 69.7287H154.649C154.649 69.4291 154.572 69.1504 154.419 68.8926C154.273 68.6278 154.05 68.4153 153.75 68.2551C153.451 68.0878 153.074 68.0042 152.621 68.0042C152.189 68.0042 151.831 68.0739 151.545 68.2133C151.266 68.3456 151.057 68.5198 150.918 68.7358C150.785 68.9518 150.719 69.1887 150.719 69.4465C150.719 69.6346 150.754 69.8053 150.824 69.9586C150.9 70.1049 151.026 70.2408 151.2 70.3662C151.374 70.4847 151.611 70.5962 151.911 70.7007C152.217 70.8052 152.601 70.9062 153.06 71.0038C153.924 71.1849 154.666 71.4183 155.287 71.704C155.914 71.9827 156.394 72.345 156.729 72.7909C157.063 73.2299 157.23 73.7873 157.23 74.4631C157.23 74.9648 157.122 75.4247 156.906 75.8427C156.697 76.2538 156.391 76.6126 155.987 76.9192C155.583 77.2188 155.098 77.4522 154.534 77.6194C153.977 77.7867 153.35 77.8703 152.653 77.8703C151.629 77.8703 150.761 77.6891 150.05 77.3268C149.34 76.9575 148.8 76.4872 148.43 75.9159C148.068 75.3376 147.887 74.7384 147.887 74.1183H150.322C150.35 74.5851 150.479 74.9578 150.709 75.2365C150.946 75.5083 151.238 75.7069 151.587 75.8323C151.942 75.9507 152.308 76.0099 152.684 76.0099C153.137 76.0099 153.517 75.9507 153.823 75.8323C154.13 75.7069 154.363 75.5396 154.524 75.3306C154.684 75.1146 154.764 74.8708 154.764 74.599ZM164.62 66.3529V68.1924H158.244V66.3529H164.62ZM160.084 63.5833H162.602V74.5363C162.602 74.8847 162.651 75.1529 162.749 75.3411C162.853 75.5222 162.996 75.6441 163.177 75.7069C163.358 75.7696 163.571 75.8009 163.815 75.8009C163.989 75.8009 164.156 75.7905 164.316 75.7696C164.477 75.7487 164.606 75.7278 164.703 75.7069L164.714 77.6299C164.505 77.6926 164.261 77.7483 163.982 77.7971C163.71 77.8459 163.397 77.8703 163.041 77.8703C162.463 77.8703 161.951 77.7693 161.505 77.5672C161.059 77.3582 160.711 77.0202 160.46 76.5534C160.209 76.0866 160.084 75.4665 160.084 74.6931V63.5833ZM169.845 76.428L172.918 66.3529H175.614L171.078 79.3857C170.974 79.6644 170.838 79.9675 170.671 80.295C170.504 80.6225 170.284 80.9325 170.012 81.2252C169.748 81.5248 169.417 81.7651 169.02 81.9463C168.622 82.1344 168.142 82.2285 167.577 82.2285C167.354 82.2285 167.138 82.2076 166.929 82.1658C166.727 82.1309 166.536 82.0926 166.354 82.0508L166.344 80.1278C166.414 80.1347 166.497 80.1417 166.595 80.1487C166.699 80.1556 166.783 80.1591 166.846 80.1591C167.264 80.1591 167.612 80.1069 167.891 80.0024C168.17 79.9048 168.396 79.7446 168.57 79.5216C168.751 79.2986 168.905 78.999 169.03 78.6228L169.845 76.428ZM168.11 66.3529L170.796 74.8185L171.246 77.4731L169.5 77.9225L165.393 66.3529H168.11ZM179.753 61.608V77.6613H177.224V61.608H179.753ZM187.498 77.8703C186.661 77.8703 185.905 77.7344 185.23 77.4627C184.561 77.184 183.989 76.7973 183.516 76.3026C183.049 75.8079 182.69 75.2261 182.439 74.5572C182.188 73.8883 182.063 73.1672 182.063 72.3938V71.9757C182.063 71.0909 182.192 70.2896 182.45 69.5719C182.707 68.8543 183.066 68.2411 183.526 67.7325C183.986 67.2169 184.529 66.8232 185.156 66.5515C185.783 66.2798 186.463 66.1439 187.194 66.1439C188.003 66.1439 188.71 66.2798 189.316 66.5515C189.922 66.8232 190.424 67.2064 190.821 67.7011C191.225 68.1889 191.525 68.7707 191.72 69.4465C191.922 70.1224 192.023 70.8679 192.023 71.6831V72.7596H183.286V70.9515H189.536V70.7529C189.522 70.3 189.431 69.875 189.264 69.4779C189.104 69.0807 188.856 68.7602 188.522 68.5163C188.187 68.2725 187.741 68.1505 187.184 68.1505C186.766 68.1505 186.393 68.2411 186.066 68.4223C185.745 68.5965 185.477 68.8508 185.261 69.1852C185.045 69.5197 184.878 69.9238 184.759 70.3976C184.648 70.8644 184.592 71.3905 184.592 71.9757V72.3938C184.592 72.8885 184.658 73.3483 184.791 73.7734C184.93 74.1914 185.132 74.5572 185.397 74.8708C185.662 75.1843 185.982 75.4316 186.358 75.6128C186.735 75.787 187.163 75.8741 187.644 75.8741C188.25 75.8741 188.79 75.7521 189.264 75.5083C189.738 75.2644 190.149 74.9195 190.497 74.4736L191.824 75.7591C191.58 76.1145 191.263 76.4559 190.873 76.7833C190.483 77.1039 190.006 77.3651 189.441 77.5672C188.884 77.7693 188.236 77.8703 187.498 77.8703ZM196.35 75.2365L196.339 77.0342C196.339 77.7449 196.162 78.4765 195.806 79.229C195.451 79.9814 194.981 80.6016 194.395 81.0893L193.047 80.3054C193.242 79.9919 193.42 79.6749 193.58 79.3544C193.74 79.0339 193.869 78.6925 193.967 78.3301C194.064 77.9678 194.113 77.5672 194.113 77.1282V75.2365H196.35ZM207.386 76.428L210.459 66.3529H213.156L208.62 79.3857C208.515 79.6644 208.379 79.9675 208.212 80.295C208.045 80.6225 207.825 80.9325 207.554 81.2252C207.289 81.5248 206.958 81.7651 206.561 81.9463C206.164 82.1344 205.683 82.2285 205.118 82.2285C204.895 82.2285 204.679 82.2076 204.47 82.1658C204.268 82.1309 204.077 82.0926 203.896 82.0508L203.885 80.1278C203.955 80.1347 204.038 80.1417 204.136 80.1487C204.241 80.1556 204.324 80.1591 204.387 80.1591C204.805 80.1591 205.153 80.1069 205.432 80.0024C205.711 79.9048 205.937 79.7446 206.111 79.5216C206.292 79.2986 206.446 78.999 206.571 78.6228L207.386 76.428ZM205.651 66.3529L208.337 74.8185L208.787 77.4731L207.041 77.9225L202.934 66.3529H205.651ZM213.95 72.1325V71.8921C213.95 71.0769 214.068 70.3209 214.305 69.6242C214.542 68.9205 214.883 68.3108 215.329 67.7952C215.782 67.2726 216.333 66.8685 216.981 66.5829C217.636 66.2902 218.374 66.1439 219.196 66.1439C220.026 66.1439 220.764 66.2902 221.412 66.5829C222.067 66.8685 222.621 67.2726 223.074 67.7952C223.527 68.3108 223.872 68.9205 224.108 69.6242C224.345 70.3209 224.464 71.0769 224.464 71.8921V72.1325C224.464 72.9477 224.345 73.7037 224.108 74.4004C223.872 75.0972 223.527 75.7069 223.074 76.2294C222.621 76.745 222.07 77.1491 221.422 77.4418C220.775 77.7274 220.039 77.8703 219.217 77.8703C218.388 77.8703 217.646 77.7274 216.991 77.4418C216.343 77.1491 215.793 76.745 215.34 76.2294C214.887 75.7069 214.542 75.0972 214.305 74.4004C214.068 73.7037 213.95 72.9477 213.95 72.1325ZM216.469 71.8921V72.1325C216.469 72.6411 216.521 73.1219 216.625 73.5748C216.73 74.0277 216.894 74.4248 217.117 74.7662C217.34 75.1076 217.625 75.3759 217.974 75.571C218.322 75.7661 218.737 75.8636 219.217 75.8636C219.684 75.8636 220.088 75.7661 220.43 75.571C220.778 75.3759 221.064 75.1076 221.287 74.7662C221.51 74.4248 221.673 74.0277 221.778 73.5748C221.889 73.1219 221.945 72.6411 221.945 72.1325V71.8921C221.945 71.3905 221.889 70.9167 221.778 70.4707C221.673 70.0179 221.506 69.6172 221.276 69.2688C221.053 68.9205 220.768 68.6487 220.419 68.4536C220.078 68.2516 219.67 68.1505 219.196 68.1505C218.723 68.1505 218.311 68.2516 217.963 68.4536C217.622 68.6487 217.34 68.9205 217.117 69.2688C216.894 69.6172 216.73 70.0179 216.625 70.4707C216.521 70.9167 216.469 71.3905 216.469 71.8921ZM233.379 74.9962V66.3529H235.908V77.6613H233.525L233.379 74.9962ZM233.734 72.6446L234.581 72.6237C234.581 73.3832 234.497 74.0834 234.33 74.7244C234.163 75.3585 233.905 75.9124 233.556 76.3862C233.208 76.853 232.762 77.2188 232.219 77.4836C231.675 77.7414 231.024 77.8703 230.264 77.8703C229.714 77.8703 229.209 77.7902 228.749 77.6299C228.289 77.4696 227.892 77.2223 227.557 76.8879C227.23 76.5534 226.976 76.1179 226.794 75.5814C226.613 75.0449 226.523 74.4039 226.523 73.6584V66.3529H229.042V73.6793C229.042 74.0904 229.09 74.4353 229.188 74.714C229.285 74.9857 229.418 75.2052 229.585 75.3724C229.752 75.5396 229.947 75.6581 230.17 75.7278C230.393 75.7974 230.63 75.8323 230.881 75.8323C231.599 75.8323 232.163 75.6929 232.574 75.4142C232.992 75.1286 233.288 74.7453 233.462 74.2646C233.644 73.7838 233.734 73.2438 233.734 72.6446ZM249.004 66.3529V68.1924H242.628V66.3529H249.004ZM244.468 63.5833H246.986V74.5363C246.986 74.8847 247.035 75.1529 247.133 75.3411C247.237 75.5222 247.38 75.6441 247.561 75.7069C247.742 75.7696 247.955 75.8009 248.199 75.8009C248.373 75.8009 248.54 75.7905 248.7 75.7696C248.861 75.7487 248.99 75.7278 249.087 75.7069L249.098 77.6299C248.889 77.6926 248.645 77.7483 248.366 77.7971C248.094 77.8459 247.781 77.8703 247.425 77.8703C246.847 77.8703 246.335 77.7693 245.889 77.5672C245.443 77.3582 245.095 77.0202 244.844 76.5534C244.593 76.0866 244.468 75.4665 244.468 74.6931V63.5833ZM253.435 61.608V77.6613H250.927V61.608H253.435ZM252.996 71.589L252.181 71.5786C252.188 70.7982 252.296 70.0771 252.505 69.4152C252.721 68.7532 253.02 68.1784 253.404 67.6907C253.794 67.196 254.261 66.8163 254.804 66.5515C255.348 66.2798 255.95 66.1439 256.612 66.1439C257.17 66.1439 257.671 66.2205 258.117 66.3738C258.57 66.5271 258.96 66.7745 259.288 67.1159C259.615 67.4503 259.862 67.8893 260.03 68.4327C260.204 68.9692 260.291 69.6242 260.291 70.3976V77.6613H257.762V70.3767C257.762 69.8332 257.682 69.4012 257.521 69.0807C257.368 68.7602 257.142 68.5303 256.842 68.3909C256.542 68.2446 256.177 68.1715 255.745 68.1715C255.292 68.1715 254.891 68.262 254.543 68.4432C254.201 68.6243 253.916 68.8717 253.686 69.1852C253.456 69.4988 253.282 69.8611 253.163 70.2722C253.052 70.6833 252.996 71.1222 252.996 71.589ZM265.538 66.3529V77.6613H263.008V66.3529H265.538ZM262.841 63.3847C262.841 63.0015 262.967 62.6845 263.217 62.4337C263.475 62.1759 263.83 62.047 264.283 62.047C264.729 62.047 265.081 62.1759 265.339 62.4337C265.597 62.6845 265.726 63.0015 265.726 63.3847C265.726 63.761 265.597 64.0745 265.339 64.3254C265.081 64.5762 264.729 64.7016 264.283 64.7016C263.83 64.7016 263.475 64.5762 263.217 64.3254C262.967 64.0745 262.841 63.761 262.841 63.3847ZM270.795 68.7672V77.6613H268.276V66.3529H270.648L270.795 68.7672ZM270.345 71.589L269.53 71.5786C269.537 70.7773 269.648 70.0422 269.864 69.3734C270.087 68.7045 270.394 68.1296 270.784 67.6489C271.181 67.1681 271.655 66.7988 272.205 66.541C272.756 66.2763 273.369 66.1439 274.045 66.1439C274.588 66.1439 275.08 66.2205 275.519 66.3738C275.964 66.5201 276.344 66.7605 276.658 67.095C276.978 67.4294 277.222 67.8649 277.389 68.4014C277.557 68.9309 277.64 69.5824 277.64 70.3558V77.6613H275.111V70.3453C275.111 69.8019 275.031 69.3734 274.871 69.0598C274.717 68.7393 274.491 68.5129 274.191 68.3805C273.899 68.2411 273.533 68.1715 273.094 68.1715C272.662 68.1715 272.275 68.262 271.934 68.4432C271.592 68.6243 271.303 68.8717 271.066 69.1852C270.836 69.4988 270.659 69.8611 270.533 70.2722C270.408 70.6833 270.345 71.1222 270.345 71.589ZM282.751 61.608V77.6613H280.222V61.608H282.751ZM289.774 66.3529L284.852 71.8085L282.155 74.5677L281.497 72.4356L283.535 69.9168L286.733 66.3529H289.774ZM287.276 77.6613L283.608 72.352L285.196 70.5857L290.192 77.6613H287.276ZM303.601 75.3202V61.608H306.13V77.6613H303.842L303.601 75.3202ZM296.244 72.1325V71.913C296.244 71.056 296.345 70.2757 296.547 69.5719C296.749 68.8612 297.041 68.2516 297.425 67.7429C297.808 67.2273 298.275 66.8337 298.825 66.5619C299.375 66.2832 299.996 66.1439 300.685 66.1439C301.368 66.1439 301.967 66.2763 302.483 66.541C302.999 66.8058 303.438 67.1855 303.8 67.6802C304.162 68.168 304.451 68.7532 304.667 69.4361C304.883 70.1119 305.037 70.8644 305.127 71.6935V72.3938C305.037 73.202 304.883 73.9406 304.667 74.6095C304.451 75.2784 304.162 75.8567 303.8 76.3444C303.438 76.8321 302.995 77.2084 302.473 77.4731C301.957 77.7379 301.354 77.8703 300.664 77.8703C299.982 77.8703 299.365 77.7274 298.815 77.4418C298.271 77.1561 297.808 76.7555 297.425 76.2399C297.041 75.7243 296.749 75.1181 296.547 74.4213C296.345 73.7176 296.244 72.9547 296.244 72.1325ZM298.762 71.913V72.1325C298.762 72.6481 298.808 73.1289 298.898 73.5748C298.996 74.0207 299.146 74.4144 299.348 74.7558C299.55 75.0902 299.811 75.355 300.131 75.5501C300.459 75.7382 300.849 75.8323 301.302 75.8323C301.873 75.8323 302.344 75.7069 302.713 75.456C303.082 75.2052 303.371 74.8673 303.58 74.4422C303.796 74.0103 303.943 73.5295 304.019 73V71.1083C303.978 70.6972 303.89 70.314 303.758 69.9586C303.633 69.6033 303.462 69.2932 303.246 69.0285C303.03 68.7567 302.762 68.5477 302.441 68.4014C302.128 68.2481 301.755 68.1715 301.323 68.1715C300.863 68.1715 300.473 68.269 300.152 68.4641C299.832 68.6592 299.567 68.9274 299.358 69.2688C299.156 69.6103 299.006 70.0074 298.909 70.4603C298.811 70.9132 298.762 71.3974 298.762 71.913ZM313.75 77.8703C312.913 77.8703 312.157 77.7344 311.482 77.4627C310.813 77.184 310.241 76.7973 309.768 76.3026C309.301 75.8079 308.942 75.2261 308.691 74.5572C308.44 73.8883 308.315 73.1672 308.315 72.3938V71.9757C308.315 71.0909 308.444 70.2896 308.702 69.5719C308.959 68.8543 309.318 68.2411 309.778 67.7325C310.238 67.2169 310.781 66.8232 311.408 66.5515C312.035 66.2798 312.715 66.1439 313.446 66.1439C314.255 66.1439 314.962 66.2798 315.568 66.5515C316.174 66.8232 316.676 67.2064 317.073 67.7011C317.477 68.1889 317.777 68.7707 317.972 69.4465C318.174 70.1224 318.275 70.8679 318.275 71.6831V72.7596H309.538V70.9515H315.788V70.7529C315.774 70.3 315.683 69.875 315.516 69.4779C315.356 69.0807 315.108 68.7602 314.774 68.5163C314.439 68.2725 313.993 68.1505 313.436 68.1505C313.018 68.1505 312.645 68.2411 312.318 68.4223C311.997 68.5965 311.729 68.8508 311.513 69.1852C311.297 69.5197 311.13 69.9238 311.011 70.3976C310.9 70.8644 310.844 71.3905 310.844 71.9757V72.3938C310.844 72.8885 310.91 73.3483 311.043 73.7734C311.182 74.1914 311.384 74.5572 311.649 74.8708C311.914 75.1843 312.234 75.4316 312.61 75.6128C312.987 75.787 313.415 75.8741 313.896 75.8741C314.502 75.8741 315.042 75.7521 315.516 75.5083C315.99 75.2644 316.401 74.9195 316.749 74.4736L318.076 75.7591C317.832 76.1145 317.515 76.4559 317.125 76.7833C316.735 77.1039 316.258 77.3651 315.693 77.5672C315.136 77.7693 314.488 77.8703 313.75 77.8703ZM323.48 77.6613H320.95V65.6213C320.95 64.7086 321.132 63.9387 321.494 63.3116C321.863 62.6845 322.389 62.2072 323.072 61.8798C323.762 61.5523 324.581 61.3885 325.528 61.3885C326.086 61.3885 326.622 61.4478 327.138 61.5662C327.66 61.6847 328.2 61.8345 328.758 62.0156L328.371 64.0641C328.016 63.9456 327.622 63.8342 327.19 63.7296C326.758 63.6182 326.26 63.5624 325.695 63.5624C324.936 63.5624 324.375 63.7366 324.013 64.085C323.657 64.4264 323.48 64.9385 323.48 65.6213V77.6613ZM325.748 66.3529V68.1924H319.216V66.3529H325.748ZM329.949 66.3529V77.6613H327.43V66.3529H329.949ZM335.258 68.7672V77.6613H332.74V66.3529H335.112L335.258 68.7672ZM334.809 71.589L333.994 71.5786C334.001 70.7773 334.112 70.0422 334.328 69.3734C334.551 68.7045 334.858 68.1296 335.248 67.6489C335.645 67.1681 336.119 66.7988 336.669 66.541C337.22 66.2763 337.833 66.1439 338.509 66.1439C339.052 66.1439 339.543 66.2205 339.982 66.3738C340.428 66.5201 340.808 66.7605 341.122 67.095C341.442 67.4294 341.686 67.8649 341.853 68.4014C342.02 68.9309 342.104 69.5824 342.104 70.3558V77.6613H339.575V70.3453C339.575 69.8019 339.495 69.3734 339.334 69.0598C339.181 68.7393 338.955 68.5129 338.655 68.3805C338.362 68.2411 337.997 68.1715 337.558 68.1715C337.126 68.1715 336.739 68.262 336.398 68.4432C336.056 68.6243 335.767 68.8717 335.53 69.1852C335.3 69.4988 335.122 69.8611 334.997 70.2722C334.872 70.6833 334.809 71.1222 334.809 71.589ZM349.66 77.8703C348.824 77.8703 348.068 77.7344 347.392 77.4627C346.723 77.184 346.152 76.7973 345.678 76.3026C345.211 75.8079 344.853 75.2261 344.602 74.5572C344.351 73.8883 344.226 73.1672 344.226 72.3938V71.9757C344.226 71.0909 344.354 70.2896 344.612 69.5719C344.87 68.8543 345.229 68.2411 345.689 67.7325C346.149 67.2169 346.692 66.8232 347.319 66.5515C347.946 66.2798 348.626 66.1439 349.357 66.1439C350.165 66.1439 350.873 66.2798 351.479 66.5515C352.085 66.8232 352.587 67.2064 352.984 67.7011C353.388 68.1889 353.688 68.7707 353.883 69.4465C354.085 70.1224 354.186 70.8679 354.186 71.6831V72.7596H345.448V70.9515H351.698V70.7529C351.684 70.3 351.594 69.875 351.427 69.4779C351.266 69.0807 351.019 68.7602 350.685 68.5163C350.35 68.2725 349.904 68.1505 349.347 68.1505C348.929 68.1505 348.556 68.2411 348.228 68.4223C347.908 68.5965 347.64 68.8508 347.424 69.1852C347.208 69.5197 347.04 69.9238 346.922 70.3976C346.811 70.8644 346.755 71.3905 346.755 71.9757V72.3938C346.755 72.8885 346.821 73.3483 346.953 73.7734C347.093 74.1914 347.295 74.5572 347.56 74.8708C347.824 75.1843 348.145 75.4316 348.521 75.6128C348.897 75.787 349.326 75.8741 349.807 75.8741C350.413 75.8741 350.953 75.7521 351.427 75.5083C351.9 75.2644 352.311 74.9195 352.66 74.4736L353.987 75.7591C353.743 76.1145 353.426 76.4559 353.036 76.7833C352.646 77.1039 352.169 77.3651 351.604 77.5672C351.047 77.7693 350.399 77.8703 349.66 77.8703ZM362.495 74.599C362.495 74.3482 362.432 74.1217 362.306 73.9197C362.181 73.7107 361.941 73.5225 361.585 73.3553C361.237 73.1881 360.721 73.0348 360.038 72.8955C359.439 72.7631 358.889 72.6063 358.387 72.4251C357.892 72.237 357.467 72.0106 357.112 71.7458C356.757 71.481 356.482 71.1675 356.286 70.8052C356.091 70.4429 355.994 70.0248 355.994 69.551C355.994 69.0912 356.095 68.6557 356.297 68.2446C356.499 67.8335 356.788 67.4712 357.164 67.1577C357.541 66.8441 357.997 66.5968 358.533 66.4156C359.077 66.2345 359.683 66.1439 360.352 66.1439C361.3 66.1439 362.111 66.3041 362.787 66.6247C363.47 66.9382 363.993 67.3667 364.355 67.9102C364.717 68.4467 364.898 69.0528 364.898 69.7287H362.38C362.38 69.4291 362.303 69.1504 362.15 68.8926C362.003 68.6278 361.78 68.4153 361.481 68.2551C361.181 68.0878 360.805 68.0042 360.352 68.0042C359.92 68.0042 359.561 68.0739 359.275 68.2133C358.997 68.3456 358.788 68.5198 358.648 68.7358C358.516 68.9518 358.45 69.1887 358.45 69.4465C358.45 69.6346 358.485 69.8053 358.554 69.9586C358.631 70.1049 358.756 70.2408 358.931 70.3662C359.105 70.4847 359.342 70.5962 359.641 70.7007C359.948 70.8052 360.331 70.9062 360.791 71.0038C361.655 71.1849 362.397 71.4183 363.017 71.704C363.644 71.9827 364.125 72.345 364.459 72.7909C364.794 73.2299 364.961 73.7873 364.961 74.4631C364.961 74.9648 364.853 75.4247 364.637 75.8427C364.428 76.2538 364.121 76.6126 363.717 76.9192C363.313 77.2188 362.829 77.4522 362.265 77.6194C361.707 77.7867 361.08 77.8703 360.383 77.8703C359.359 77.8703 358.492 77.6891 357.781 77.3268C357.07 76.9575 356.53 76.4872 356.161 75.9159C355.799 75.3376 355.618 74.7384 355.618 74.1183H358.053C358.081 74.5851 358.209 74.9578 358.439 75.2365C358.676 75.5083 358.969 75.7069 359.317 75.8323C359.673 75.9507 360.038 76.0099 360.415 76.0099C360.868 76.0099 361.247 75.9507 361.554 75.8323C361.86 75.7069 362.094 75.5396 362.254 75.3306C362.414 75.1146 362.495 74.8708 362.495 74.599ZM375.778 76.428L378.851 66.3529H381.547L377.011 79.3857C376.907 79.6644 376.771 79.9675 376.604 80.295C376.437 80.6225 376.217 80.9325 375.945 81.2252C375.681 81.5248 375.35 81.7651 374.952 81.9463C374.555 82.1344 374.075 82.2285 373.51 82.2285C373.287 82.2285 373.071 82.2076 372.862 82.1658C372.66 82.1309 372.469 82.0926 372.287 82.0508L372.277 80.1278C372.347 80.1347 372.43 80.1417 372.528 80.1487C372.632 80.1556 372.716 80.1591 372.779 80.1591C373.197 80.1591 373.545 80.1069 373.824 80.0024C374.102 79.9048 374.329 79.7446 374.503 79.5216C374.684 79.2986 374.838 78.999 374.963 78.6228L375.778 76.428ZM374.043 66.3529L376.729 74.8185L377.179 77.4731L375.433 77.9225L371.326 66.3529H374.043ZM382.342 72.1325V71.8921C382.342 71.0769 382.46 70.3209 382.697 69.6242C382.934 68.9205 383.275 68.3108 383.721 67.7952C384.174 67.2726 384.724 66.8685 385.372 66.5829C386.027 66.2902 386.766 66.1439 387.588 66.1439C388.417 66.1439 389.156 66.2902 389.804 66.5829C390.459 66.8685 391.013 67.2726 391.466 67.7952C391.918 68.3108 392.263 68.9205 392.5 69.6242C392.737 70.3209 392.856 71.0769 392.856 71.8921V72.1325C392.856 72.9477 392.737 73.7037 392.5 74.4004C392.263 75.0972 391.918 75.7069 391.466 76.2294C391.013 76.745 390.462 77.1491 389.814 77.4418C389.166 77.7274 388.431 77.8703 387.609 77.8703C386.78 77.8703 386.038 77.7274 385.383 77.4418C384.735 77.1491 384.184 76.745 383.732 76.2294C383.279 75.7069 382.934 75.0972 382.697 74.4004C382.46 73.7037 382.342 72.9477 382.342 72.1325ZM384.86 71.8921V72.1325C384.86 72.6411 384.913 73.1219 385.017 73.5748C385.122 74.0277 385.285 74.4248 385.508 74.7662C385.731 75.1076 386.017 75.3759 386.365 75.571C386.714 75.7661 387.128 75.8636 387.609 75.8636C388.076 75.8636 388.48 75.7661 388.821 75.571C389.17 75.3759 389.455 75.1076 389.678 74.7662C389.901 74.4248 390.065 74.0277 390.17 73.5748C390.281 73.1219 390.337 72.6411 390.337 72.1325V71.8921C390.337 71.3905 390.281 70.9167 390.17 70.4707C390.065 70.0179 389.898 69.6172 389.668 69.2688C389.445 68.9205 389.159 68.6487 388.811 68.4536C388.47 68.2516 388.062 68.1505 387.588 68.1505C387.114 68.1505 386.703 68.2516 386.355 68.4536C386.013 68.6487 385.731 68.9205 385.508 69.2688C385.285 69.6172 385.122 70.0179 385.017 70.4707C384.913 70.9167 384.86 71.3905 384.86 71.8921ZM401.771 74.9962V66.3529H404.3V77.6613H401.917L401.771 74.9962ZM402.126 72.6446L402.972 72.6237C402.972 73.3832 402.889 74.0834 402.722 74.7244C402.554 75.3585 402.297 75.9124 401.948 76.3862C401.6 76.853 401.154 77.2188 400.61 77.4836C400.067 77.7414 399.416 77.8703 398.656 77.8703C398.106 77.8703 397.601 77.7902 397.141 77.6299C396.681 77.4696 396.284 77.2223 395.949 76.8879C395.622 76.5534 395.367 76.1179 395.186 75.5814C395.005 75.0449 394.915 74.4039 394.915 73.6584V66.3529H397.433V73.6793C397.433 74.0904 397.482 74.4353 397.58 74.714C397.677 74.9857 397.81 75.2052 397.977 75.3724C398.144 75.5396 398.339 75.6581 398.562 75.7278C398.785 75.7974 399.022 75.8323 399.273 75.8323C399.99 75.8323 400.555 75.6929 400.966 75.4142C401.384 75.1286 401.68 74.7453 401.854 74.2646C402.035 73.7838 402.126 73.2438 402.126 72.6446ZM406.913 76.4071C406.913 76.0169 407.045 75.6894 407.31 75.4247C407.575 75.1529 407.933 75.0171 408.386 75.0171C408.846 75.0171 409.205 75.1529 409.463 75.4247C409.728 75.6894 409.86 76.0169 409.86 76.4071C409.86 76.7973 409.728 77.1248 409.463 77.3895C409.205 77.6543 408.846 77.7867 408.386 77.7867C407.933 77.7867 407.575 77.6543 407.31 77.3895C407.045 77.1248 406.913 76.7973 406.913 76.4071ZM406.923 67.5026C406.923 67.1124 407.055 66.7849 407.32 66.5201C407.585 66.2484 407.944 66.1125 408.397 66.1125C408.857 66.1125 409.215 66.2484 409.473 66.5201C409.738 66.7849 409.87 67.1124 409.87 67.5026C409.87 67.8927 409.738 68.2202 409.473 68.485C409.215 68.7498 408.857 68.8821 408.397 68.8821C407.944 68.8821 407.585 68.7498 407.32 68.485C407.055 68.2202 406.923 67.8927 406.923 67.5026Z" fill="#202020"/>
<rect x="338.855" y="120.466" width="256.317" height="224.21" rx="4.54842" fill="#CDC5C3" stroke="#202020" stroke-width="0.535108" stroke-dasharray="4.28 4.28"/>
</g>
<rect x="2.00576" y="1.93984" width="637.849" height="398.12" rx="9.63194" stroke="#4A4848" stroke-width="2.14043"/>
<defs>
<clipPath id="clip0_1720_39195">
<rect x="0.935547" y="0.869629" width="639.989" height="400.261" rx="10.7022" fill="white"/>
</clipPath>
</defs>
</svg>
