<svg width="943" height="463" viewBox="0 0 943 463" fill="none" xmlns="http://www.w3.org/2000/svg">
<rect width="983.608" height="463" transform="translate(-41)" fill="white"/>
<g clip-path="url(#clip0_1522_57146)">
<rect x="251.949" y="33.0078" width="633.151" height="395.984" rx="10.5878" fill="#EDEAE4"/>
<rect x="251.949" y="33.0078" width="633.151" height="12.7054" fill="#4A4848"/>
<rect x="263.596" y="37.243" width="4.23513" height="4.23513" rx="2.11756" fill="#C52925"/>
<rect x="272.066" y="37.243" width="4.23513" height="4.23513" rx="2.11756" fill="#EDEAE4"/>
<rect x="280.537" y="37.243" width="4.23513" height="4.23513" rx="2.11756" fill="#458846"/>
</g>
<rect x="253.008" y="34.0666" width="631.034" height="393.867" rx="9.52904" stroke="#4A4848" stroke-width="2.11756"/>
<rect x="22.5273" y="103.761" width="169.405" height="48.4108" rx="5.29391" fill="#EDEAE4"/>
<path d="M39.9916 120.411V135.466H37.9961V120.411H39.9916ZM46.2988 127.184V128.818H39.5574V127.184H46.2988ZM47.3224 120.411V122.045H39.5574V120.411H47.3224ZM48.6769 129.996V129.759C48.6769 128.952 48.7941 128.204 49.0285 127.515C49.2629 126.819 49.6006 126.215 50.0418 125.705C50.4829 125.188 51.0172 124.789 51.6444 124.506C52.2717 124.216 52.9748 124.072 53.7537 124.072C54.5395 124.072 55.2461 124.216 55.8733 124.506C56.5075 124.789 57.0452 125.188 57.4863 125.705C57.9344 126.215 58.2756 126.819 58.51 127.515C58.7443 128.204 58.8615 128.952 58.8615 129.759V129.996C58.8615 130.803 58.7443 131.551 58.51 132.24C58.2756 132.929 57.9344 133.532 57.4863 134.049C57.0452 134.56 56.511 134.959 55.8837 135.249C55.2633 135.531 54.5602 135.673 53.7744 135.673C52.9886 135.673 52.282 135.531 51.6548 135.249C51.0275 134.959 50.4898 134.56 50.0418 134.049C49.6006 133.532 49.2629 132.929 49.0285 132.24C48.7941 131.551 48.6769 130.803 48.6769 129.996ZM50.5898 129.759V129.996C50.5898 130.555 50.6553 131.082 50.7862 131.578C50.9172 132.068 51.1137 132.502 51.3756 132.881C51.6444 133.26 51.9787 133.56 52.3785 133.781C52.7783 133.994 53.2436 134.101 53.7744 134.101C54.2983 134.101 54.7567 133.994 55.1496 133.781C55.5494 133.56 55.8802 133.26 56.1422 132.881C56.4041 132.502 56.6006 132.068 56.7315 131.578C56.8694 131.082 56.9383 130.555 56.9383 129.996V129.759C56.9383 129.207 56.8694 128.687 56.7315 128.197C56.6006 127.701 56.4007 127.263 56.1318 126.884C55.8699 126.498 55.539 126.195 55.1392 125.974C54.7463 125.754 54.2845 125.643 53.7537 125.643C53.2298 125.643 52.768 125.754 52.3682 125.974C51.9753 126.195 51.6444 126.498 51.3756 126.884C51.1137 127.263 50.9172 127.701 50.7862 128.197C50.6553 128.687 50.5898 129.207 50.5898 129.759ZM63.1732 126.036V135.466H61.2603V124.278H63.1215L63.1732 126.036ZM66.668 124.216L66.6576 125.995C66.4991 125.96 66.3474 125.94 66.2027 125.933C66.0648 125.919 65.9063 125.912 65.727 125.912C65.2859 125.912 64.8964 125.981 64.5587 126.119C64.2209 126.257 63.9348 126.45 63.7005 126.698C63.4661 126.946 63.28 127.243 63.1421 127.587C63.0112 127.925 62.925 128.297 62.8836 128.704L62.346 129.014C62.346 128.339 62.4115 127.704 62.5424 127.112C62.6803 126.519 62.8905 125.995 63.1732 125.54C63.4558 125.078 63.8142 124.72 64.2485 124.465C64.6896 124.203 65.2135 124.072 65.8201 124.072C65.958 124.072 66.1165 124.089 66.2957 124.123C66.475 124.151 66.599 124.182 66.668 124.216ZM74.6709 120.411L78.5793 127.97L82.498 120.411H84.7624L79.5719 129.841V135.466H77.5763V129.841L72.3858 120.411H74.6709ZM85.2173 129.996V129.759C85.2173 128.952 85.3345 128.204 85.5689 127.515C85.8032 126.819 86.141 126.215 86.5822 125.705C87.0233 125.188 87.5575 124.789 88.1848 124.506C88.8121 124.216 89.5152 124.072 90.2941 124.072C91.0799 124.072 91.7865 124.216 92.4137 124.506C93.0479 124.789 93.5856 125.188 94.0267 125.705C94.4748 126.215 94.816 126.819 95.0503 127.515C95.2847 128.204 95.4019 128.952 95.4019 129.759V129.996C95.4019 130.803 95.2847 131.551 95.0503 132.24C94.816 132.929 94.4748 133.532 94.0267 134.049C93.5856 134.56 93.0513 134.959 92.4241 135.249C91.8037 135.531 91.1006 135.673 90.3148 135.673C89.529 135.673 88.8224 135.531 88.1951 135.249C87.5679 134.959 87.0302 134.56 86.5822 134.049C86.141 133.532 85.8032 132.929 85.5689 132.24C85.3345 131.551 85.2173 130.803 85.2173 129.996ZM87.1302 129.759V129.996C87.1302 130.555 87.1956 131.082 87.3266 131.578C87.4576 132.068 87.654 132.502 87.916 132.881C88.1848 133.26 88.5191 133.56 88.9189 133.781C89.3187 133.994 89.784 134.101 90.3148 134.101C90.8387 134.101 91.297 133.994 91.69 133.781C92.0898 133.56 92.4206 133.26 92.6826 132.881C92.9445 132.502 93.141 132.068 93.2719 131.578C93.4098 131.082 93.4787 130.555 93.4787 129.996V129.759C93.4787 129.207 93.4098 128.687 93.2719 128.197C93.141 127.701 92.9411 127.263 92.6722 126.884C92.4103 126.498 92.0794 126.195 91.6796 125.974C91.2867 125.754 90.8249 125.643 90.2941 125.643C89.7702 125.643 89.3084 125.754 88.9086 125.974C88.5157 126.195 88.1848 126.498 87.916 126.884C87.654 127.263 87.4576 127.701 87.3266 128.197C87.1956 128.687 87.1302 129.207 87.1302 129.759ZM104.646 132.881V124.278H106.569V135.466H104.739L104.646 132.881ZM105.007 130.524L105.804 130.503C105.804 131.247 105.724 131.937 105.566 132.571C105.414 133.198 105.166 133.743 104.821 134.205C104.477 134.666 104.025 135.028 103.467 135.29C102.908 135.545 102.23 135.673 101.43 135.673C100.885 135.673 100.386 135.594 99.9307 135.435C99.4826 135.276 99.0966 135.032 98.7726 134.701C98.4486 134.37 98.197 133.939 98.0178 133.408C97.8455 132.878 97.7593 132.24 97.7593 131.496V124.278H99.6722V131.516C99.6722 132.019 99.7273 132.436 99.8376 132.767C99.9548 133.091 100.11 133.35 100.303 133.543C100.503 133.729 100.723 133.86 100.965 133.936C101.213 134.012 101.468 134.049 101.73 134.049C102.543 134.049 103.188 133.894 103.663 133.584C104.139 133.267 104.48 132.843 104.687 132.312C104.901 131.775 105.007 131.178 105.007 130.524ZM111.397 126.667V135.466H109.485V124.278H111.294L111.397 126.667ZM110.942 129.448L110.146 129.417C110.153 128.652 110.267 127.946 110.487 127.298C110.708 126.643 111.018 126.074 111.418 125.592C111.818 125.109 112.293 124.737 112.845 124.475C113.403 124.206 114.02 124.072 114.696 124.072C115.247 124.072 115.743 124.148 116.185 124.299C116.626 124.444 117.001 124.678 117.312 125.002C117.629 125.326 117.87 125.747 118.035 126.264C118.201 126.774 118.284 127.398 118.284 128.135V135.466H116.36V128.115C116.36 127.529 116.274 127.06 116.102 126.708C115.93 126.35 115.678 126.091 115.347 125.933C115.016 125.767 114.61 125.685 114.127 125.685C113.651 125.685 113.217 125.785 112.824 125.985C112.438 126.184 112.104 126.46 111.821 126.812C111.546 127.163 111.328 127.566 111.17 128.021C111.018 128.469 110.942 128.945 110.942 129.448ZM128.437 124.278H130.174V135.228C130.174 136.214 129.974 137.055 129.574 137.751C129.175 138.447 128.616 138.975 127.899 139.333C127.189 139.698 126.369 139.881 125.439 139.881C125.053 139.881 124.598 139.819 124.074 139.695C123.557 139.578 123.047 139.374 122.544 139.085C122.047 138.802 121.63 138.42 121.292 137.937L122.295 136.8C122.764 137.365 123.254 137.758 123.764 137.979C124.281 138.199 124.791 138.309 125.294 138.309C125.9 138.309 126.424 138.196 126.865 137.968C127.307 137.741 127.648 137.403 127.889 136.955C128.137 136.514 128.261 135.969 128.261 135.321V126.739L128.437 124.278ZM120.734 129.996V129.779C120.734 128.924 120.834 128.149 121.034 127.453C121.241 126.75 121.534 126.147 121.913 125.643C122.299 125.14 122.764 124.754 123.309 124.485C123.853 124.21 124.467 124.072 125.149 124.072C125.852 124.072 126.466 124.196 126.99 124.444C127.52 124.685 127.968 125.04 128.334 125.509C128.706 125.971 128.999 126.529 129.213 127.184C129.426 127.839 129.574 128.58 129.657 129.407V130.358C129.581 131.178 129.433 131.916 129.213 132.571C128.999 133.226 128.706 133.784 128.334 134.246C127.968 134.708 127.52 135.063 126.99 135.311C126.459 135.552 125.838 135.673 125.128 135.673C124.46 135.673 123.853 135.531 123.309 135.249C122.771 134.966 122.309 134.57 121.923 134.06C121.537 133.55 121.241 132.95 121.034 132.261C120.834 131.565 120.734 130.81 120.734 129.996ZM122.647 129.779V129.996C122.647 130.555 122.702 131.079 122.812 131.568C122.93 132.057 123.105 132.488 123.34 132.86C123.581 133.233 123.888 133.526 124.26 133.739C124.632 133.946 125.077 134.049 125.594 134.049C126.228 134.049 126.752 133.915 127.165 133.646C127.579 133.377 127.906 133.022 128.148 132.581C128.396 132.14 128.589 131.661 128.727 131.144V128.652C128.651 128.273 128.534 127.908 128.375 127.556C128.223 127.198 128.024 126.881 127.775 126.605C127.534 126.322 127.234 126.098 126.876 125.933C126.517 125.767 126.097 125.685 125.614 125.685C125.091 125.685 124.639 125.795 124.26 126.016C123.888 126.229 123.581 126.526 123.34 126.905C123.105 127.277 122.93 127.711 122.812 128.208C122.702 128.697 122.647 129.221 122.647 129.779ZM140.617 120.411V135.466H138.622V120.411H140.617ZM149.706 120.411L143.45 127.432L139.935 131.082L139.604 128.952L142.251 126.036L147.307 120.411H149.706ZM147.783 135.466L142.21 128.125L143.399 126.543L150.161 135.466H147.783ZM153.707 124.278V135.466H151.784V124.278H153.707ZM151.639 121.311C151.639 121.001 151.732 120.739 151.919 120.525C152.112 120.312 152.394 120.205 152.766 120.205C153.132 120.205 153.411 120.312 153.604 120.525C153.804 120.739 153.904 121.001 153.904 121.311C153.904 121.607 153.804 121.862 153.604 122.076C153.411 122.283 153.132 122.386 152.766 122.386C152.394 122.386 152.112 122.283 151.919 122.076C151.732 121.862 151.639 121.607 151.639 121.311ZM163.83 133.295V119.584H165.753V135.466H163.995L163.83 133.295ZM156.303 129.996V129.779C156.303 128.924 156.406 128.149 156.613 127.453C156.826 126.75 157.126 126.147 157.512 125.643C157.905 125.14 158.37 124.754 158.908 124.485C159.453 124.21 160.059 124.072 160.728 124.072C161.431 124.072 162.044 124.196 162.568 124.444C163.099 124.685 163.547 125.04 163.913 125.509C164.285 125.971 164.578 126.529 164.791 127.184C165.005 127.839 165.153 128.58 165.236 129.407V130.358C165.16 131.178 165.012 131.916 164.791 132.571C164.578 133.226 164.285 133.784 163.913 134.246C163.547 134.708 163.099 135.063 162.568 135.311C162.038 135.552 161.417 135.673 160.707 135.673C160.052 135.673 159.453 135.531 158.908 135.249C158.37 134.966 157.905 134.57 157.512 134.06C157.126 133.55 156.826 132.95 156.613 132.261C156.406 131.565 156.303 130.81 156.303 129.996ZM158.226 129.779V129.996C158.226 130.555 158.281 131.079 158.391 131.568C158.508 132.057 158.688 132.488 158.929 132.86C159.17 133.233 159.477 133.526 159.849 133.739C160.221 133.946 160.666 134.049 161.183 134.049C161.817 134.049 162.337 133.915 162.744 133.646C163.158 133.377 163.489 133.022 163.737 132.581C163.985 132.14 164.178 131.661 164.316 131.144V128.652C164.233 128.273 164.112 127.908 163.954 127.556C163.802 127.198 163.602 126.881 163.354 126.605C163.113 126.322 162.813 126.098 162.455 125.933C162.103 125.767 161.686 125.685 161.204 125.685C160.68 125.685 160.228 125.795 159.849 126.016C159.477 126.229 159.17 126.526 158.929 126.905C158.688 127.277 158.508 127.711 158.391 128.208C158.281 128.697 158.226 129.221 158.226 129.779ZM175.245 132.499C175.245 132.223 175.183 131.968 175.059 131.733C174.941 131.492 174.697 131.275 174.325 131.082C173.959 130.882 173.408 130.71 172.67 130.565C172.05 130.434 171.488 130.279 170.985 130.1C170.489 129.92 170.065 129.703 169.713 129.448C169.368 129.193 169.103 128.893 168.917 128.549C168.731 128.204 168.638 127.801 168.638 127.339C168.638 126.898 168.734 126.481 168.927 126.088C169.127 125.695 169.406 125.347 169.765 125.044C170.13 124.74 170.568 124.503 171.078 124.33C171.588 124.158 172.157 124.072 172.784 124.072C173.68 124.072 174.445 124.23 175.079 124.547C175.714 124.864 176.199 125.288 176.537 125.819C176.875 126.343 177.044 126.925 177.044 127.566H175.131C175.131 127.256 175.038 126.956 174.852 126.667C174.673 126.371 174.407 126.126 174.056 125.933C173.711 125.74 173.287 125.643 172.784 125.643C172.253 125.643 171.822 125.726 171.491 125.891C171.167 126.05 170.93 126.253 170.778 126.502C170.633 126.75 170.561 127.012 170.561 127.287C170.561 127.494 170.595 127.68 170.664 127.846C170.74 128.004 170.871 128.152 171.057 128.29C171.243 128.421 171.505 128.545 171.843 128.663C172.181 128.78 172.612 128.897 173.135 129.014C174.052 129.221 174.807 129.469 175.4 129.759C175.993 130.048 176.434 130.403 176.723 130.823C177.013 131.244 177.158 131.754 177.158 132.354C177.158 132.843 177.054 133.291 176.847 133.698C176.648 134.105 176.355 134.456 175.969 134.753C175.589 135.042 175.134 135.27 174.604 135.435C174.08 135.594 173.49 135.673 172.836 135.673C171.85 135.673 171.016 135.497 170.333 135.145C169.651 134.794 169.134 134.339 168.782 133.781C168.431 133.222 168.255 132.633 168.255 132.013H170.178C170.206 132.536 170.358 132.953 170.633 133.264C170.909 133.567 171.247 133.784 171.647 133.915C172.046 134.039 172.443 134.101 172.836 134.101C173.36 134.101 173.797 134.032 174.149 133.894C174.507 133.757 174.779 133.567 174.966 133.326C175.152 133.084 175.245 132.809 175.245 132.499Z" fill="#202020"/>
<rect x="22.5273" y="46.5864" width="169.405" height="48.4108" rx="5.29391" fill="#EDEAE4"/>
<path d="M71.7447 63.2372H73.6783L78.6103 75.5104L83.532 63.2372H85.4758L79.3547 78.2918H77.8451L71.7447 63.2372ZM71.114 63.2372H72.8201L73.0992 72.4188V78.2918H71.114V63.2372ZM84.3901 63.2372H86.0962V78.2918H84.111V72.4188L84.3901 63.2372ZM91.3901 67.1043V78.2918H89.4669V67.1043H91.3901ZM89.3222 64.1368C89.3222 63.8266 89.4152 63.5646 89.6013 63.351C89.7943 63.1373 90.077 63.0304 90.4492 63.0304C90.8145 63.0304 91.0937 63.1373 91.2867 63.351C91.4866 63.5646 91.5866 63.8266 91.5866 64.1368C91.5866 64.4332 91.4866 64.6882 91.2867 64.9019C91.0937 65.1087 90.8145 65.2121 90.4492 65.2121C90.077 65.2121 89.7943 65.1087 89.6013 64.9019C89.4152 64.6882 89.3222 64.4332 89.3222 64.1368ZM96.3738 69.4927V78.2918H94.461V67.1043H96.2704L96.3738 69.4927ZM95.9189 72.2741L95.1227 72.2431C95.1296 71.4779 95.2434 70.7714 95.4639 70.1234C95.6845 69.4686 95.9947 68.8999 96.3945 68.4174C96.7943 67.9349 97.2699 67.5627 97.8214 67.3007C98.3797 67.0319 98.9966 66.8975 99.6722 66.8975C100.224 66.8975 100.72 66.9733 101.161 67.1249C101.602 67.2697 101.978 67.5041 102.288 67.828C102.605 68.152 102.846 68.5725 103.012 69.0895C103.177 69.5996 103.26 70.2234 103.26 70.961V78.2918H101.337V70.9403C101.337 70.3544 101.251 69.8856 101.078 69.5341C100.906 69.1756 100.654 68.9171 100.324 68.7586C99.9927 68.5932 99.586 68.5105 99.1035 68.5105C98.6279 68.5105 98.1936 68.6104 97.8007 68.8103C97.4147 69.0102 97.0804 69.2859 96.7977 69.6375C96.522 69.989 96.3049 70.3923 96.1463 70.8472C95.9947 71.2953 95.9189 71.7709 95.9189 72.2741ZM108.244 67.1043V78.2918H106.321V67.1043H108.244ZM106.176 64.1368C106.176 63.8266 106.269 63.5646 106.455 63.351C106.648 63.1373 106.931 63.0304 107.303 63.0304C107.668 63.0304 107.947 63.1373 108.14 63.351C108.34 63.5646 108.44 63.8266 108.44 64.1368C108.44 64.4332 108.34 64.6882 108.14 64.9019C107.947 65.1087 107.668 65.2121 107.303 65.2121C106.931 65.2121 106.648 65.1087 106.455 64.9019C106.269 64.6882 106.176 64.4332 106.176 64.1368ZM113.217 69.3273V78.2918H111.294V67.1043H113.114L113.217 69.3273ZM112.824 72.2741L111.935 72.2431C111.942 71.4779 112.042 70.7714 112.235 70.1234C112.428 69.4686 112.714 68.8999 113.093 68.4174C113.472 67.9349 113.944 67.5627 114.51 67.3007C115.075 67.0319 115.73 66.8975 116.474 66.8975C116.998 66.8975 117.481 66.9733 117.922 67.1249C118.363 67.2697 118.745 67.5006 119.069 67.8177C119.393 68.1348 119.645 68.5415 119.824 69.0378C120.003 69.5341 120.093 70.1338 120.093 70.8369V78.2918H118.18V70.9299C118.18 70.344 118.08 69.8753 117.88 69.5237C117.687 69.1722 117.412 68.9171 117.053 68.7586C116.695 68.5932 116.274 68.5105 115.792 68.5105C115.226 68.5105 114.754 68.6104 114.375 68.8103C113.996 69.0102 113.693 69.2859 113.465 69.6375C113.238 69.989 113.072 70.3923 112.969 70.8472C112.872 71.2953 112.824 71.7709 112.824 72.2741ZM120.072 71.2194L118.79 71.6124C118.797 70.9989 118.897 70.4095 119.09 69.8443C119.29 69.279 119.576 68.7758 119.948 68.3347C120.327 67.8935 120.793 67.5454 121.344 67.2904C121.896 67.0284 122.526 66.8975 123.236 66.8975C123.836 66.8975 124.367 66.9767 124.829 67.1353C125.297 67.2938 125.69 67.5385 126.007 67.8694C126.331 68.1934 126.576 68.6104 126.741 69.1205C126.907 69.6306 126.99 70.2372 126.99 70.9403V78.2918H125.066V70.9196C125.066 70.2923 124.966 69.8064 124.767 69.4617C124.574 69.1102 124.298 68.8655 123.939 68.7276C123.588 68.5828 123.167 68.5105 122.678 68.5105C122.257 68.5105 121.885 68.5828 121.561 68.7276C121.237 68.8723 120.965 69.0722 120.744 69.3273C120.524 69.5754 120.355 69.8615 120.238 70.1855C120.127 70.5095 120.072 70.8541 120.072 71.2194ZM136.481 76.3789V70.6197C136.481 70.1786 136.392 69.796 136.213 69.472C136.04 69.1412 135.778 68.8861 135.427 68.7069C135.075 68.5277 134.641 68.4381 134.124 68.4381C133.641 68.4381 133.217 68.5208 132.852 68.6862C132.494 68.8517 132.211 69.0688 132.004 69.3376C131.804 69.6065 131.704 69.896 131.704 70.2062H129.792C129.792 69.8064 129.895 69.41 130.102 69.0171C130.309 68.6242 130.605 68.2692 130.991 67.9521C131.384 67.6281 131.853 67.3731 132.397 67.187C132.949 66.994 133.562 66.8975 134.238 66.8975C135.051 66.8975 135.768 67.0353 136.388 67.3111C137.016 67.5868 137.505 68.0038 137.857 68.5622C138.215 69.1136 138.394 69.8064 138.394 70.6404V75.8516C138.394 76.2238 138.425 76.6202 138.487 77.0407C138.556 77.4612 138.656 77.823 138.787 78.1263V78.2918H136.792C136.695 78.0712 136.619 77.7782 136.564 77.4129C136.509 77.0407 136.481 76.696 136.481 76.3789ZM136.812 71.509L136.833 72.8531H134.899C134.355 72.8531 133.869 72.8979 133.442 72.9875C133.014 73.0702 132.656 73.1978 132.366 73.3701C132.077 73.5424 131.856 73.7596 131.704 74.0215C131.553 74.2765 131.477 74.5764 131.477 74.921C131.477 75.2726 131.556 75.5931 131.715 75.8826C131.873 76.1721 132.111 76.4031 132.428 76.5754C132.752 76.7408 133.149 76.8235 133.617 76.8235C134.203 76.8235 134.72 76.6995 135.168 76.4513C135.616 76.2032 135.971 75.8999 136.233 75.5414C136.502 75.183 136.647 74.8349 136.667 74.4971L137.484 75.4174C137.436 75.7069 137.305 76.0274 137.091 76.3789C136.878 76.7305 136.592 77.0683 136.233 77.3922C135.882 77.7093 135.461 77.9747 134.972 78.1884C134.489 78.3952 133.945 78.4986 133.338 78.4986C132.58 78.4986 131.915 78.3504 131.343 78.054C130.777 77.7576 130.336 77.3612 130.019 76.8649C129.709 76.3617 129.554 75.7999 129.554 75.1795C129.554 74.5798 129.671 74.0525 129.905 73.5976C130.14 73.1357 130.477 72.7532 130.919 72.4499C131.36 72.1397 131.891 71.9053 132.511 71.7468C133.131 71.5882 133.824 71.509 134.589 71.509H136.812ZM143.481 62.4101V78.2918H141.558V62.4101H143.481Z" fill="#202020"/>
<rect x="22.5273" y="160.935" width="169.405" height="48.4108" rx="5.29391" fill="#EDEAE4"/>
<path d="M72.179 191.017V192.64H64.6517V191.017H72.179ZM65.0446 177.586V192.64H63.0491V177.586H65.0446ZM80.5645 190.055V181.453H82.4877V192.64H80.6575L80.5645 190.055ZM80.9264 187.698L81.7225 187.677C81.7225 188.422 81.6432 189.111 81.4847 189.745C81.3331 190.372 81.0849 190.917 80.7402 191.379C80.3956 191.841 79.9441 192.202 79.3858 192.464C78.8274 192.719 78.1484 192.847 77.3488 192.847C76.8043 192.847 76.3045 192.768 75.8496 192.609C75.4015 192.451 75.0155 192.206 74.6915 191.875C74.3676 191.544 74.116 191.113 73.9367 190.583C73.7644 190.052 73.6783 189.414 73.6783 188.67V181.453H75.5911V188.69C75.5911 189.194 75.6462 189.611 75.7565 189.942C75.8737 190.266 76.0288 190.524 76.2218 190.717C76.4217 190.903 76.6423 191.034 76.8836 191.11C77.1317 191.186 77.3867 191.224 77.6487 191.224C78.4621 191.224 79.1066 191.069 79.5822 190.758C80.0578 190.441 80.399 190.017 80.6058 189.487C80.8195 188.949 80.9264 188.353 80.9264 187.698ZM86.6959 181.453L89.1464 185.527L91.6279 181.453H93.8716L90.2114 186.974L93.9854 192.64H91.7727L89.1878 188.442L86.6028 192.64H84.3798L88.1434 186.974L84.4935 181.453H86.6959ZM102.753 190.055V181.453H104.677V192.64H102.846L102.753 190.055ZM103.115 187.698L103.911 187.677C103.911 188.422 103.832 189.111 103.674 189.745C103.522 190.372 103.274 190.917 102.929 191.379C102.585 191.841 102.133 192.202 101.575 192.464C101.016 192.719 100.337 192.847 99.5378 192.847C98.9932 192.847 98.4935 192.768 98.0385 192.609C97.5905 192.451 97.2044 192.206 96.8805 191.875C96.5565 191.544 96.3049 191.113 96.1257 190.583C95.9533 190.052 95.8672 189.414 95.8672 188.67V181.453H97.78V188.69C97.78 189.194 97.8352 189.611 97.9455 189.942C98.0626 190.266 98.2177 190.524 98.4107 190.717C98.6106 190.903 98.8312 191.034 99.0725 191.11C99.3206 191.186 99.5757 191.224 99.8376 191.224C100.651 191.224 101.296 191.069 101.771 190.758C102.247 190.441 102.588 190.017 102.795 189.487C103.008 188.949 103.115 188.353 103.115 187.698ZM109.505 183.21V192.64H107.592V181.453H109.453L109.505 183.21ZM113 181.391L112.99 183.169C112.831 183.135 112.679 183.114 112.535 183.107C112.397 183.093 112.238 183.086 112.059 183.086C111.618 183.086 111.228 183.155 110.891 183.293C110.553 183.431 110.267 183.624 110.033 183.872C109.798 184.12 109.612 184.417 109.474 184.761C109.343 185.099 109.257 185.471 109.216 185.878L108.678 186.188C108.678 185.513 108.744 184.879 108.874 184.286C109.012 183.693 109.223 183.169 109.505 182.714C109.788 182.252 110.146 181.894 110.581 181.639C111.022 181.377 111.546 181.246 112.152 181.246C112.29 181.246 112.449 181.263 112.628 181.298C112.807 181.325 112.931 181.356 113 181.391ZM116.846 181.453V192.64H114.923V181.453H116.846ZM114.778 178.485C114.778 178.175 114.871 177.913 115.058 177.699C115.251 177.486 115.533 177.379 115.905 177.379C116.271 177.379 116.55 177.486 116.743 177.699C116.943 177.913 117.043 178.175 117.043 178.485C117.043 178.782 116.943 179.037 116.743 179.25C116.55 179.457 116.271 179.561 115.905 179.561C115.533 179.561 115.251 179.457 115.058 179.25C114.871 179.037 114.778 178.782 114.778 178.485ZM119.411 187.171V186.933C119.411 186.126 119.528 185.378 119.762 184.689C119.997 183.993 120.334 183.39 120.775 182.88C121.217 182.363 121.751 181.963 122.378 181.68C123.005 181.391 123.708 181.246 124.487 181.246C125.273 181.246 125.98 181.391 126.607 181.68C127.241 181.963 127.779 182.363 128.22 182.88C128.668 183.39 129.009 183.993 129.244 184.689C129.478 185.378 129.595 186.126 129.595 186.933V187.171C129.595 187.977 129.478 188.725 129.244 189.414C129.009 190.104 128.668 190.707 128.22 191.224C127.779 191.734 127.245 192.134 126.617 192.423C125.997 192.706 125.294 192.847 124.508 192.847C123.722 192.847 123.016 192.706 122.388 192.423C121.761 192.134 121.223 191.734 120.775 191.224C120.334 190.707 119.997 190.104 119.762 189.414C119.528 188.725 119.411 187.977 119.411 187.171ZM121.323 186.933V187.171C121.323 187.729 121.389 188.256 121.52 188.752C121.651 189.242 121.847 189.676 122.109 190.055C122.378 190.434 122.712 190.734 123.112 190.955C123.512 191.169 123.977 191.275 124.508 191.275C125.032 191.275 125.49 191.169 125.883 190.955C126.283 190.734 126.614 190.434 126.876 190.055C127.138 189.676 127.334 189.242 127.465 188.752C127.603 188.256 127.672 187.729 127.672 187.171V186.933C127.672 186.381 127.603 185.861 127.465 185.371C127.334 184.875 127.134 184.437 126.865 184.058C126.604 183.672 126.273 183.369 125.873 183.148C125.48 182.928 125.018 182.818 124.487 182.818C123.963 182.818 123.502 182.928 123.102 183.148C122.709 183.369 122.378 183.672 122.109 184.058C121.847 184.437 121.651 184.875 121.52 185.371C121.389 185.861 121.323 186.381 121.323 186.933ZM138.839 190.055V181.453H140.762V192.64H138.932L138.839 190.055ZM139.201 187.698L139.997 187.677C139.997 188.422 139.918 189.111 139.759 189.745C139.607 190.372 139.359 190.917 139.015 191.379C138.67 191.841 138.218 192.202 137.66 192.464C137.102 192.719 136.423 192.847 135.623 192.847C135.079 192.847 134.579 192.768 134.124 192.609C133.676 192.451 133.29 192.206 132.966 191.875C132.642 191.544 132.39 191.113 132.211 190.583C132.039 190.052 131.953 189.414 131.953 188.67V181.453H133.865V188.69C133.865 189.194 133.921 189.611 134.031 189.942C134.148 190.266 134.303 190.524 134.496 190.717C134.696 190.903 134.917 191.034 135.158 191.11C135.406 191.186 135.661 191.224 135.923 191.224C136.736 191.224 137.381 191.069 137.857 190.758C138.332 190.441 138.673 190.017 138.88 189.487C139.094 188.949 139.201 188.353 139.201 187.698ZM150.192 189.673C150.192 189.397 150.13 189.142 150.006 188.908C149.888 188.666 149.644 188.449 149.272 188.256C148.906 188.056 148.355 187.884 147.617 187.739C146.997 187.608 146.435 187.453 145.932 187.274C145.436 187.095 145.012 186.878 144.66 186.623C144.315 186.367 144.05 186.068 143.864 185.723C143.678 185.378 143.585 184.975 143.585 184.513C143.585 184.072 143.681 183.655 143.874 183.262C144.074 182.869 144.353 182.521 144.712 182.218C145.077 181.915 145.515 181.677 146.025 181.504C146.535 181.332 147.104 181.246 147.731 181.246C148.627 181.246 149.392 181.404 150.026 181.722C150.661 182.039 151.146 182.463 151.484 182.993C151.822 183.517 151.991 184.1 151.991 184.741H150.078C150.078 184.431 149.985 184.131 149.799 183.841C149.62 183.545 149.354 183.3 149.003 183.107C148.658 182.914 148.234 182.818 147.731 182.818C147.2 182.818 146.769 182.9 146.438 183.066C146.115 183.224 145.877 183.428 145.725 183.676C145.58 183.924 145.508 184.186 145.508 184.462C145.508 184.668 145.542 184.854 145.611 185.02C145.687 185.178 145.818 185.327 146.004 185.464C146.19 185.595 146.452 185.72 146.79 185.837C147.128 185.954 147.559 186.071 148.082 186.188C148.999 186.395 149.754 186.643 150.347 186.933C150.94 187.222 151.381 187.577 151.67 187.998C151.96 188.418 152.105 188.928 152.105 189.528C152.105 190.017 152.001 190.465 151.794 190.872C151.595 191.279 151.302 191.63 150.916 191.927C150.536 192.216 150.081 192.444 149.551 192.609C149.027 192.768 148.437 192.847 147.783 192.847C146.797 192.847 145.963 192.671 145.28 192.32C144.598 191.968 144.081 191.513 143.729 190.955C143.378 190.396 143.202 189.807 143.202 189.187H145.125C145.153 189.711 145.305 190.128 145.58 190.438C145.856 190.741 146.194 190.958 146.594 191.089C146.993 191.213 147.39 191.275 147.783 191.275C148.307 191.275 148.744 191.206 149.096 191.069C149.454 190.931 149.726 190.741 149.913 190.5C150.099 190.259 150.192 189.983 150.192 189.673Z" fill="#202020"/>
<path fill-rule="evenodd" clip-rule="evenodd" d="M234.817 274.325C234.968 274.185 235.187 274.146 235.377 274.223L251.605 280.843C251.808 280.926 251.939 281.126 251.934 281.345C251.929 281.565 251.789 281.758 251.582 281.832L244.2 284.46L241.011 291.618C240.922 291.819 240.718 291.943 240.499 291.932C240.279 291.92 240.09 291.774 240.023 291.565L234.673 274.875C234.61 274.679 234.666 274.465 234.817 274.325ZM240.608 289.921L243.325 283.822C243.384 283.689 243.494 283.587 243.631 283.538L249.921 281.299L236.027 275.632L240.608 289.921Z" fill="#202020"/>
<path d="M240.608 289.921L243.325 283.822C243.384 283.689 243.494 283.587 243.631 283.538L249.921 281.299L236.027 275.632L240.608 289.921Z" fill="white"/>
<defs>
<clipPath id="clip0_1522_57146">
<rect x="251.949" y="33.0078" width="633.151" height="395.984" rx="10.5878" fill="white"/>
</clipPath>
</defs>
</svg>
