<svg width="20" height="20" viewBox="0 0 20 20" fill="none" xmlns="http://www.w3.org/2000/svg">
<path d="M17.5 7.5265V13.4634C17.5 14.0687 17.2618 14.6511 16.8342 15.091C16.4067 15.531 15.8221 15.7953 15.2005 15.8295L15.0625 15.8332H4.9375C4.3149 15.8332 3.71588 15.6016 3.26333 15.1859C2.81078 14.7702 2.539 14.2019 2.50375 13.5975L2.5 13.4634V7.5265L9.739 11.2132C9.81953 11.2542 9.90909 11.2756 10 11.2756C10.0909 11.2756 10.1805 11.2542 10.261 11.2132L17.5 7.5265ZM4.9375 4.1665H15.0625C15.6667 4.16643 16.2494 4.38452 16.6975 4.77847C17.1457 5.17242 17.4274 5.71415 17.488 6.29859L10 10.1121L2.512 6.29859C2.57014 5.73736 2.83229 5.21469 3.25131 4.82455C3.67034 4.43441 4.21876 4.20237 4.798 4.17015L4.9375 4.1665Z" fill="black"/>
</svg>
