<svg width="95" height="117" viewBox="0 0 95 117" fill="none" xmlns="http://www.w3.org/2000/svg">
<path d="M56.8749 58.5381V92.1179C56.8749 99.6051 64.3228 104.812 71.354 102.238L79.4167 99.2861L79.5793 99.2262C81.2158 98.6273 81.5017 96.4335 80.073 95.435L76.547 92.971C75.9702 92.5677 75.6255 91.9077 75.6255 91.2037V13.29C75.6255 12.5262 76.3967 12.0055 77.1056 12.2903L93.7015 18.9684C94.1097 19.1321 94.3774 19.5281 94.3774 19.9681V97.113C94.3774 97.5518 94.1121 97.9466 93.7052 98.1116L49.7166 115.98C48.1657 116.609 46.4302 116.613 44.8768 115.987C40.7972 114.345 38.1243 110.389 38.1243 105.99V58.5381V24.9583C38.1243 17.4712 30.6763 12.2646 23.6452 14.8386L19.3737 16.4384L15.4444 17.8586C13.8018 18.4526 13.5109 20.6513 14.9433 21.6523L18.4534 24.104C19.0302 24.5073 19.3749 25.1673 19.3749 25.8713V103.787C19.3749 104.551 18.6037 105.072 17.8948 104.787L1.29891 98.1091C0.890703 97.9453 0.623047 97.5494 0.623047 97.1094V19.9644C0.623047 19.5257 0.888259 19.1309 1.29524 18.9659L45.2826 1.09742C46.8335 0.46799 48.569 0.464324 50.1224 1.09009C54.202 2.73272 56.8749 6.68896 56.8749 11.0876V58.5393V58.5381Z" fill="url(#paint0_linear_1622_3442)"/>
<defs>
<linearGradient id="paint0_linear_1622_3442" x1="0.623047" y1="58.5381" x2="94.3761" y2="58.5381" gradientUnits="userSpaceOnUse">
<stop stop-color="#D96872"/>
<stop offset="1" stop-color="#A32170"/>
</linearGradient>
</defs>
</svg>
