<svg width="24" height="24" viewBox="0 0 24 24" fill="none" xmlns="http://www.w3.org/2000/svg">
<g clip-path="url(#clip0_2445_31614)">
<path d="M20.6166 0.031662C22.6719 0.031662 24 1.29815 24 3.64116L23.9684 20.4538C23.9684 22.5435 22.7984 24 20.6166 24H3.2253C1.3913 24 0 22.8285 0 20.7388L0 3.26121C0 1.36148 1.48617 -1.90735e-06 3.2253 -1.90735e-06H20.6166V0.031662ZM19.7628 12.3799C19.4466 6.9657 15.6206 4.24274 12.3004 4.74934C11.1937 4.74934 11.1621 5.82586 12.1107 5.69921C16.8854 5.09762 18.9091 9.94195 18.8775 12.3166C18.9091 12.8549 19.7945 12.7282 19.7628 12.3483V12.3799ZM16.9486 11.4934C17.0119 12.095 18.087 12.1266 17.8656 11.0501C17.2016 7.97889 15.5257 6.64908 12.9012 6.64908C11.8893 6.64908 12.0158 7.69393 12.9328 7.59894C14.8933 7.4723 16.6008 8.80211 16.9486 11.4934ZM13.3755 9.43536C14.6719 9.59367 14.8617 10.1003 15.083 11.3034C15.1462 11.5884 16.2213 11.9683 15.9051 10.5119C15.6206 9.1504 14.6719 8.61214 13.6917 8.51715C12.6482 8.3905 12.6166 9.34037 13.3755 9.43536ZM6.16601 4.81266C5.59684 4.97098 4.71146 5.7942 4.36364 6.23747C3.76285 7.02902 3.73123 7.56728 4.04743 8.45382C6.13439 13.5831 10.498 18.1425 15.8103 19.9789C16.9486 20.3905 17.3913 20.4538 18.2451 19.6306C18.6561 19.2507 19.415 18.3008 19.5099 17.7942C19.7628 16.3061 16.0949 14.0897 15.2095 14.2797C14.7036 14.4063 14.2292 15.2296 13.8182 15.6412C11.9209 16.781 7.74704 12.0317 8.37945 10.6385C8.72727 10.1003 9.16996 9.97361 9.54941 9.53034C10.498 8.45382 7.74704 4.21108 6.16601 4.84433V4.81266Z" fill="black"/>
</g>
<defs>
<clipPath id="clip0_2445_31614">
<rect width="24" height="24" fill="white"/>
</clipPath>
</defs>
</svg>
