<svg width="20" height="20" viewBox="0 0 20 20" fill="none" xmlns="http://www.w3.org/2000/svg">
<path d="M14.5193 17.4999C13.8656 17.4999 12.9473 17.2635 11.5722 16.4954C9.90012 15.5579 8.60678 14.6924 6.94371 13.034C5.34026 11.4318 4.55997 10.3945 3.46789 8.40768C2.23416 6.16435 2.44447 4.98845 2.67956 4.48587C2.95953 3.8852 3.37278 3.52593 3.90693 3.16934C4.21033 2.9706 4.53139 2.80023 4.86606 2.66041C4.89955 2.64601 4.93069 2.63228 4.95849 2.61989C5.12426 2.54523 5.37542 2.43239 5.69357 2.55293C5.90589 2.63262 6.09544 2.79568 6.39215 3.08865C7.00065 3.68865 7.83218 5.02494 8.13894 5.6812C8.34489 6.12351 8.48119 6.41547 8.48153 6.74293C8.48153 7.12631 8.28863 7.42196 8.05454 7.74105C8.01067 7.80098 7.96714 7.85824 7.92494 7.91382C7.67009 8.24864 7.61416 8.34541 7.651 8.51818C7.72568 8.86539 8.2826 9.899 9.19786 10.8121C10.1131 11.7251 11.1171 12.2468 11.4657 12.3211C11.6459 12.3596 11.7447 12.3014 12.0903 12.0375C12.1399 11.9997 12.1908 11.9605 12.244 11.9213C12.601 11.6558 12.883 11.468 13.2574 11.468H13.2594C13.5853 11.468 13.8642 11.6093 14.3264 11.8423C14.9292 12.1463 16.3059 12.967 16.9097 13.5761C17.2034 13.872 17.3672 14.0609 17.4472 14.2728C17.5678 14.5919 17.4542 14.842 17.3802 15.0094C17.3678 15.0372 17.3541 15.0677 17.3397 15.1015C17.1987 15.4355 17.0273 15.7558 16.8277 16.0584C16.4717 16.5908 16.111 17.003 15.5089 17.2832C15.1997 17.4295 14.8613 17.5035 14.5193 17.4999Z" fill="black"/>
</svg>
