<svg width="111" height="49" viewBox="0 0 111 49" fill="none" xmlns="http://www.w3.org/2000/svg">
<g id="Logo">
<g id="Group">
<path id="Vector" d="M3.28515 32.9759H1.06836V13.7904H3.28515V16.5615C4.87665 14.4022 7.34936 13.321 10.7033 13.321C13.4884 13.321 15.7342 14.1525 17.4397 15.8155C19.1451 17.478 19.9979 19.4896 19.9979 21.8479V32.9753H17.7811V21.8903C17.7811 21.0096 17.6174 20.1921 17.2905 19.4389C16.9636 18.6861 16.473 17.9826 15.8197 17.3283C15.1654 16.675 14.4126 16.1844 13.5599 15.8575C12.7072 15.5311 11.7545 15.3674 10.7033 15.3674C8.65695 15.3674 6.88051 16.0212 5.37398 17.3283C3.98091 18.6359 3.28515 20.1569 3.28515 21.8898V32.9748V32.9759Z" fill="white" stroke="white" stroke-width="0.203523" stroke-miterlimit="10"/>
<path id="Vector_2" d="M43.6176 30.0338C41.5137 32.336 38.8706 33.4872 35.6876 33.4872H35.2612C32.1632 33.4872 29.5335 32.4785 27.3742 30.4601C25.2989 28.4138 24.2617 26.0411 24.2617 23.3404C24.2617 20.6397 25.2989 18.2955 27.3742 16.3056C29.5061 14.3442 32.2487 13.3635 35.6026 13.3635C36.4269 13.3635 37.2366 13.435 38.0329 13.577C38.8001 13.7474 39.5104 13.9754 40.1647 14.2593C40.818 14.5437 41.4438 14.8985 42.0406 15.3249C42.6374 15.7508 43.2057 16.2626 43.7461 16.8594L44.0445 17.1153L43.7461 17.4137L29.89 29.6924C31.6804 30.858 33.3998 31.4403 35.0488 31.4403C36.8393 31.4403 38.4023 31.0714 39.7383 30.3317C41.0454 29.5929 42.1261 28.5837 42.9788 27.3046L43.7461 26.1535V29.9053L43.6181 30.0327L43.6176 30.0338ZM31.8721 16.0284C30.8344 16.4408 29.8749 17.0734 28.9942 17.9256C28.1415 18.7503 27.5089 19.6383 27.0971 20.59C26.6847 21.5427 26.479 22.5586 26.479 23.6383C26.479 25.6282 27.1038 27.4046 28.3549 28.9676L40.932 17.3288C40.1072 16.6755 39.2405 16.1927 38.3313 15.8792C37.3646 15.5668 36.3274 15.4104 35.2193 15.4104C34.0251 15.4104 32.9097 15.6171 31.8726 16.0284H31.8721Z" fill="white" stroke="white" stroke-width="0.203523" stroke-miterlimit="10"/>
<path id="Vector_3" d="M64.2088 13.7904H66.4256V32.9758H64.2088V30.2047C62.6168 32.365 60.1441 33.4452 56.7907 33.4452C54.0045 33.4452 51.7598 32.6137 50.0543 30.9507C48.3488 29.2883 47.4961 27.2777 47.4961 24.9184V13.7909H49.7134V24.8759C49.7134 26.6384 50.3667 28.1589 51.6743 29.4375C53.0389 30.7451 54.7438 31.3983 56.7907 31.3983C58.8375 31.3983 60.6129 30.7451 62.12 29.4375C63.512 28.1304 64.2088 26.6099 64.2088 24.8759V13.7909V13.7904Z" fill="white" stroke="white" stroke-width="0.203523" stroke-miterlimit="10"/>
<path id="Vector_4" d="M79.2587 31.3128V33.3592H78.8323C76.7005 33.3592 74.8815 32.6634 73.375 31.2703C71.868 29.8778 71.1152 28.1013 71.1152 25.941V0.999878H73.332V25.8985C73.332 27.462 73.8651 28.7551 74.9308 29.7783C75.9964 30.8015 77.2973 31.3133 78.8318 31.3133H79.2582L79.2587 31.3128Z" fill="white" stroke="white" stroke-width="0.203523" stroke-miterlimit="10"/>
<path id="Vector_5" d="M84.3324 9.99604C83.8211 9.99604 83.4159 9.85409 83.1175 9.56968C82.8191 9.28578 82.6699 8.90189 82.6699 8.41854C82.6699 7.93518 82.8191 7.55182 83.1175 7.2674C83.4159 6.9835 83.8211 6.84155 84.3324 6.84155C84.8437 6.84155 85.2488 6.98402 85.5472 7.2674C85.8456 7.55182 85.9948 7.9357 85.9948 8.41854C85.9948 8.90137 85.8456 9.28578 85.5472 9.56968C85.2488 9.85409 84.8437 9.99604 84.3324 9.99604ZM85.441 13.8328V32.9758H83.2237V13.8328H85.441Z" fill="white" stroke="white" stroke-width="0.203523" stroke-miterlimit="10"/>
<path id="Vector_6" d="M108.547 13.7904H110.722L110.423 14.3872L100.617 33.2743L100.19 34.0845L99.764 33.2743L89.9156 14.3872L89.6172 13.7904H92.0474L92.1754 14.0463L100.318 30.0768L108.419 14.0463L108.547 13.7904H108.547Z" fill="white" stroke="white" stroke-width="0.203523" stroke-miterlimit="10"/>
</g>
<g id="Group_2">
<path id="Vector_7" d="M5.76722 38.9563C6.392 39.307 6.88572 39.7893 7.24785 40.4027C7.60997 41.0161 7.79078 41.6968 7.79078 42.4433C7.79078 43.1899 7.60945 43.867 7.24785 44.4726C6.88572 45.0787 6.392 45.5569 5.76722 45.9076C5.14191 46.2584 4.456 46.4335 3.70947 46.4335H1V38.4304H3.70947C4.45652 38.4304 5.14243 38.606 5.76722 38.9563ZM3.70947 45.8734C4.3498 45.8734 4.93676 45.7232 5.47037 45.4217C6.00397 45.1207 6.42516 44.7088 6.73393 44.1871C7.04269 43.6649 7.19708 43.0837 7.19708 42.4433C7.19708 41.803 7.04269 41.2202 6.73393 40.6938C6.42516 40.168 6.00397 39.7525 5.47037 39.4479C4.93676 39.1433 4.3498 38.9904 3.70947 38.9904H1.59422V45.8729H3.70947V45.8734Z" fill="white"/>
<path id="Vector_8" d="M13.0563 41.0026C13.4868 41.2771 13.8204 41.645 14.0566 42.106C14.2929 42.5671 14.411 43.0645 14.411 43.5981C14.411 43.6058 14.4032 43.6856 14.3882 43.8379H9.18634C9.20913 44.2342 9.32362 44.6021 9.52929 44.9414C9.73497 45.2807 10.0209 45.5491 10.3867 45.7475C10.7524 45.9459 11.1716 46.0449 11.6445 46.0449C12.0637 46.0449 12.462 45.9459 12.8392 45.7475C13.2163 45.5496 13.4888 45.3056 13.6567 45.016L14.1256 45.2906C13.8815 45.6869 13.5427 45.9977 13.1081 46.2226C12.6734 46.4474 12.1818 46.5598 11.6331 46.5598C11.0462 46.5598 10.5219 46.4324 10.0613 46.177C9.60026 45.9216 9.24176 45.5672 8.98636 45.1139C8.73095 44.6606 8.60352 44.1477 8.60352 43.5763C8.60352 43.0049 8.7294 42.5148 8.98066 42.0615C9.23244 41.6082 9.58472 41.2497 10.038 40.987C10.4913 40.7238 11.0042 40.5928 11.5756 40.5928C12.1471 40.5928 12.6258 40.7301 13.0563 41.0041V41.0026ZM13.8738 43.3349C13.7898 42.6412 13.55 42.0962 13.1537 41.6999C12.7573 41.3036 12.2315 41.1051 11.5756 41.1051C11.1182 41.1051 10.7068 41.2098 10.3411 41.4196C9.97534 41.6294 9.69145 41.9055 9.4894 42.2485C9.28736 42.5915 9.18271 42.9536 9.17493 43.3349H13.8738Z" fill="white"/>
<path id="Vector_9" d="M16.0519 42.7173C16.185 42.8396 16.3508 42.9344 16.5492 43.0033C16.7471 43.0717 17.0294 43.152 17.3952 43.2432C17.8449 43.3499 18.207 43.4566 18.4811 43.5633C18.7556 43.67 18.9898 43.8301 19.1841 44.0436C19.3783 44.257 19.4757 44.543 19.4757 44.901C19.4757 45.2211 19.384 45.5071 19.2012 45.7584C19.0183 46.0096 18.7665 46.206 18.4463 46.3474C18.1262 46.4883 17.7604 46.5588 17.3486 46.5588C16.7844 46.5588 16.3083 46.4422 15.9192 46.2101C15.5307 45.9775 15.2597 45.6672 15.1074 45.2781L15.5877 45.0268C15.7172 45.3698 15.9363 45.6273 16.2451 45.7988C16.5539 45.9702 16.9212 46.0562 17.3486 46.0562C17.776 46.0562 18.1547 45.9531 18.4634 45.7475C18.7722 45.5418 18.9266 45.26 18.9266 44.9015C18.9266 44.673 18.8525 44.486 18.7038 44.3414C18.5551 44.1969 18.3723 44.086 18.1552 44.0099C17.9381 43.9337 17.6423 43.8498 17.2693 43.7586C16.8346 43.6519 16.4881 43.5509 16.229 43.4556C15.97 43.3602 15.7488 43.2157 15.5659 43.0209C15.383 42.8266 15.2913 42.5692 15.2913 42.249C15.2913 41.9288 15.3773 41.6543 15.5488 41.403C15.7203 41.1512 15.9602 40.9533 16.2689 40.8083C16.5777 40.6637 16.9263 40.5912 17.3149 40.5912C17.7796 40.5912 18.1873 40.6922 18.538 40.8943C18.8888 41.0963 19.1478 41.3766 19.3156 41.7346L18.8468 41.9858C18.7323 41.704 18.5401 41.4828 18.2692 41.3227C17.9987 41.1626 17.6801 41.0828 17.3144 41.0828C16.8647 41.0828 16.5083 41.1895 16.2456 41.403C15.9824 41.6164 15.8514 41.8946 15.8514 42.2376C15.8514 42.436 15.9182 42.5961 16.0513 42.7178L16.0519 42.7173Z" fill="white"/>
<path id="Vector_10" d="M20.5678 38.9563C20.4952 38.8879 20.459 38.7926 20.459 38.6703C20.459 38.5481 20.4952 38.4532 20.5678 38.3843C20.6403 38.316 20.7372 38.2812 20.8594 38.2812C20.9817 38.2812 21.0786 38.3154 21.1511 38.3843C21.2236 38.4527 21.2599 38.5486 21.2599 38.6703C21.2599 38.7921 21.2236 38.8874 21.1511 38.9563C21.0786 39.0247 20.9812 39.0594 20.8594 39.0594C20.7377 39.0594 20.6403 39.0252 20.5678 38.9563ZM20.5735 46.4335V40.7172H21.1335V46.4335H20.5735Z" fill="white"/>
<path id="Vector_11" d="M27.7766 40.7166H28.3366V46.1589C28.3366 46.7075 28.2087 47.1857 27.9538 47.5939C27.6984 48.0016 27.3497 48.3125 26.9078 48.5259C26.4654 48.7394 25.9742 48.8461 25.4329 48.8461C24.777 48.8461 24.2077 48.7243 23.7238 48.4803C23.2399 48.2363 22.8907 47.9011 22.6778 47.4743L23.1581 47.1997C23.3181 47.5198 23.5886 47.7887 23.9699 48.0058C24.3512 48.2229 24.8387 48.3316 25.4334 48.3316C25.8753 48.3316 26.2752 48.242 26.6337 48.0628C26.9917 47.8835 27.272 47.6281 27.474 47.2966C27.6761 46.965 27.7771 46.5858 27.7771 46.1589V45.1414C27.5331 45.5761 27.1995 45.9227 26.7767 46.1817C26.3535 46.4407 25.8831 46.5702 25.365 46.5702C24.8469 46.5702 24.332 46.4366 23.8901 46.1703C23.4477 45.9035 23.1011 45.5434 22.8498 45.0896C22.598 44.6363 22.4727 44.1348 22.4727 43.5862C22.4727 43.0376 22.5985 42.5361 22.8498 42.0828C23.1016 41.6295 23.4482 41.2694 23.8901 41.0026C24.332 40.7358 24.8236 40.6027 25.365 40.6027C25.9064 40.6027 26.354 40.7322 26.7767 40.9912C27.2 41.2502 27.5331 41.5973 27.7771 42.0315V40.7166H27.7766ZM26.6047 45.7014C26.9669 45.488 27.2523 45.1948 27.4621 44.8213C27.6714 44.4477 27.7766 44.0364 27.7766 43.5867C27.7766 43.137 27.6719 42.7257 27.4621 42.3522C27.2523 41.9786 26.9663 41.6854 26.6047 41.472C26.2426 41.2585 25.8406 41.1518 25.3987 41.1518C24.9568 41.1518 24.5641 41.2585 24.1983 41.472C23.8326 41.6854 23.5445 41.9792 23.3352 42.3522C23.1254 42.7257 23.0208 43.1375 23.0208 43.5867C23.0208 44.0359 23.1254 44.4482 23.3352 44.8213C23.5445 45.1948 23.8326 45.4885 24.1983 45.7014C24.5641 45.9149 24.9645 46.0216 25.3987 46.0216C25.8328 46.0216 26.2426 45.9149 26.6047 45.7014Z" fill="white"/>
<path id="Vector_12" d="M33.6018 40.7969C33.9562 40.9342 34.2608 41.1839 34.5162 41.5461C34.7716 41.9082 34.8991 42.3978 34.8991 43.0153V46.434H34.339V43.0153C34.339 42.3294 34.152 41.8414 33.779 41.5518C33.4055 41.2622 32.975 41.1171 32.487 41.1171C31.9989 41.1171 31.5819 41.2793 31.212 41.6031C30.8421 41.9274 30.6577 42.4775 30.6577 43.2552V46.4335H30.0977V40.7172H30.6577V41.6321C30.8328 41.3347 31.0903 41.0871 31.4296 40.8892C31.7684 40.6913 32.144 40.5918 32.5559 40.5918C32.8988 40.5918 33.2475 40.6602 33.6018 40.7975V40.7969Z" fill="white"/>
<path id="Vector_13" d="M40.3356 41.0026C40.7661 41.2771 41.0997 41.645 41.3359 42.106C41.5722 42.5671 41.6903 43.0645 41.6903 43.5981C41.6903 43.6058 41.6825 43.6856 41.6675 43.8379H36.4656C36.4884 44.2342 36.6029 44.6021 36.8086 44.9414C37.0143 45.2807 37.3002 45.5491 37.666 45.7475C38.0317 45.9459 38.4509 46.0449 38.9238 46.0449C39.343 46.0449 39.7413 45.9459 40.1185 45.7475C40.4956 45.5496 40.7682 45.3056 40.936 45.016L41.4048 45.2906C41.1608 45.6869 40.822 45.9977 40.3874 46.2226C39.9527 46.4474 39.4611 46.5598 38.9124 46.5598C38.3255 46.5598 37.8012 46.4324 37.3406 46.177C36.8796 45.9216 36.5211 45.5672 36.2657 45.1139C36.0103 44.6606 35.8828 44.1477 35.8828 43.5763C35.8828 43.0049 36.0087 42.5148 36.26 42.0615C36.5117 41.6082 36.864 41.2497 37.3173 40.987C37.7706 40.7238 38.2835 40.5928 38.8549 40.5928C39.4264 40.5928 39.9051 40.7301 40.3356 41.0041V41.0026ZM41.1531 43.3349C41.0691 42.6412 40.8293 42.0962 40.433 41.6999C40.0366 41.3036 39.5108 41.1051 38.8549 41.1051C38.3975 41.1051 37.9862 41.2098 37.6204 41.4196C37.2546 41.6294 36.9707 41.9055 36.7687 42.2485C36.5667 42.5915 36.462 42.9536 36.4542 43.3349H41.1531Z" fill="white"/>
<path id="Vector_14" d="M47.726 38.4298H48.2746V46.4329H47.726V45.118C47.482 45.5599 47.1484 45.9127 46.7256 46.1754C46.3024 46.4386 45.832 46.5697 45.3139 46.5697C44.7958 46.5697 44.2809 46.436 43.839 46.1697C43.3965 45.9029 43.0479 45.5429 42.793 45.089C42.5376 44.6357 42.4102 44.1342 42.4102 43.5856C42.4102 43.037 42.5376 42.5355 42.793 42.0822C43.0484 41.6289 43.3971 41.2688 43.839 41.002C44.2809 40.7352 44.7725 40.6021 45.3139 40.6021C45.8553 40.6021 46.3029 40.7337 46.7256 40.9963C47.1489 41.2595 47.482 41.6118 47.726 42.0537V38.4293V38.4298ZM46.5484 45.7014C46.9142 45.4879 47.2017 45.1947 47.4115 44.8212C47.6208 44.4477 47.726 44.0363 47.726 43.5866C47.726 43.137 47.6214 42.7256 47.4115 42.3521C47.2017 41.9786 46.9142 41.6854 46.5484 41.4719C46.1827 41.2585 45.7822 41.1517 45.3481 41.1517C44.914 41.1517 44.5036 41.2585 44.142 41.4719C43.7799 41.6854 43.4939 41.9791 43.2846 42.3521C43.0748 42.7256 42.9702 43.1375 42.9702 43.5866C42.9702 44.0358 43.0748 44.4482 43.2846 44.8212C43.4939 45.1947 43.7799 45.4885 44.142 45.7014C44.5042 45.9148 44.9062 46.0215 45.3481 46.0215C45.79 46.0215 46.1827 45.9148 46.5484 45.7014Z" fill="white"/>
<path id="Vector_15" d="M53.6486 40.2249C53.6486 39.7525 53.7988 39.3883 54.1003 39.1328C54.4013 38.8774 54.8189 38.75 55.3525 38.75C55.8555 38.75 56.2404 38.8759 56.5072 39.1272C56.774 39.3789 56.9072 39.7483 56.9072 40.2363C56.9072 40.6782 56.7813 41.0538 56.53 41.3626C56.2788 41.6714 55.9166 41.9781 55.4442 42.2832L57.319 44.5124C57.4258 44.3679 57.5133 44.1332 57.5822 43.8094C57.6506 43.4856 57.6812 43.1712 57.6739 42.866H58.2111C58.2111 43.2851 58.1749 43.6379 58.1023 43.9234C58.0298 44.2094 57.8982 44.5502 57.7081 44.9466L59.0002 46.4329H58.3028L57.3999 45.3584C57.0947 45.7169 56.7196 45.9987 56.2736 46.2044C55.8275 46.4101 55.395 46.5132 54.9758 46.5132C54.2972 46.5132 53.7563 46.3474 53.3522 46.0158C52.9481 45.6843 52.7461 45.1947 52.7461 44.5466C52.7461 44.1886 52.8223 43.8721 52.9746 43.5975C53.1269 43.3229 53.3346 43.081 53.5978 42.8717C53.861 42.6624 54.2055 42.4277 54.6324 42.1687C54.2283 41.6734 53.9635 41.3077 53.8377 41.0709C53.7118 40.8347 53.6491 40.5529 53.6491 40.2249H53.6486ZM54.9862 42.5345C54.5443 42.8013 54.205 43.0339 53.9687 43.2318C53.7325 43.4302 53.561 43.6302 53.4543 43.8322C53.3476 44.0342 53.2942 44.2726 53.2942 44.5466C53.2942 45.0346 53.4429 45.4025 53.7403 45.6501C54.0376 45.8977 54.449 46.0215 54.9748 46.0215C55.7674 46.0215 56.4534 45.6672 57.0325 44.9585L54.9862 42.5345ZM55.352 39.2416C54.9707 39.2416 54.6811 39.3199 54.4832 39.4758C54.2847 39.6323 54.1858 39.8856 54.1858 40.2363C54.1858 40.7243 54.4832 41.2807 55.0774 41.9055C55.5043 41.6465 55.8281 41.3932 56.0493 41.145C56.2705 40.8974 56.3808 40.5943 56.3808 40.2363C56.3808 39.9011 56.2969 39.6514 56.1291 39.4872C55.9612 39.3235 55.7022 39.2416 55.3514 39.2416H55.352Z" fill="white"/>
<path id="Vector_16" d="M68.1461 38.9563C68.7709 39.307 69.2646 39.7893 69.6268 40.4027C69.9889 41.0161 70.1697 41.6968 70.1697 42.4433C70.1697 43.1899 69.9884 43.867 69.6268 44.4726C69.2646 45.0787 68.7709 45.5569 68.1461 45.9076C67.5208 46.2584 66.8349 46.4335 66.0884 46.4335H63.3789V38.4304H66.0884C66.8354 38.4304 67.5213 38.606 68.1461 38.9563ZM66.0884 45.8734C66.7287 45.8734 67.3157 45.7232 67.8493 45.4217C68.3829 45.1207 68.8041 44.7088 69.1128 44.1871C69.4216 43.6649 69.576 43.0837 69.576 42.4433C69.576 41.803 69.4216 41.2202 69.1128 40.6938C68.8041 40.168 68.3829 39.7525 67.8493 39.4479C67.3157 39.1433 66.7287 38.9904 66.0884 38.9904H63.9731V45.8729H66.0884V45.8734Z" fill="white"/>
<path id="Vector_17" d="M75.4352 41.0026C75.8657 41.2771 76.1993 41.645 76.4356 42.106C76.6718 42.5671 76.7899 43.0645 76.7899 43.5981C76.7899 43.6058 76.7821 43.6856 76.7671 43.8379H71.5652C71.588 44.2342 71.7025 44.6021 71.9082 44.9414C72.1139 45.2807 72.3998 45.5491 72.7656 45.7475C73.1313 45.9459 73.5505 46.0449 74.0235 46.0449C74.4426 46.0449 74.841 45.9459 75.2181 45.7475C75.5953 45.5496 75.8678 45.3056 76.0356 45.016L76.5045 45.2906C76.2605 45.6869 75.9216 45.9977 75.487 46.2226C75.0523 46.4474 74.5607 46.5598 74.0121 46.5598C73.4251 46.5598 72.9008 46.4324 72.4402 46.177C71.9792 45.9216 71.6207 45.5672 71.3653 45.1139C71.1099 44.6606 70.9824 44.1477 70.9824 43.5763C70.9824 43.0049 71.1083 42.5148 71.3596 42.0615C71.6114 41.6082 71.9636 41.2497 72.4169 40.987C72.8702 40.7238 73.3831 40.5928 73.9546 40.5928C74.526 40.5928 75.0047 40.7301 75.4352 41.0041V41.0026ZM76.2527 43.3349C76.1688 42.6412 75.9289 42.0962 75.5326 41.6999C75.1363 41.3036 74.6104 41.1051 73.9546 41.1051C73.4971 41.1051 73.0858 41.2098 72.72 41.4196C72.3543 41.6294 72.0704 41.9055 71.8683 42.2485C71.6663 42.5915 71.5616 42.9536 71.5538 43.3349H76.2527Z" fill="white"/>
<path id="Vector_18" d="M78.527 45.8786C78.5804 45.9284 78.6602 45.9527 78.7669 45.9527C78.8814 45.9527 79.0109 45.9413 79.1555 45.9185V46.433C78.957 46.4635 78.8011 46.4786 78.6866 46.4786C78.4426 46.4786 78.2483 46.4174 78.1038 46.2957C77.9587 46.1739 77.8867 45.9527 77.8867 45.6326V38.4299H78.4467V45.6212C78.4467 45.7429 78.4732 45.8289 78.5265 45.8786H78.527Z" fill="white"/>
<path id="Vector_19" d="M80.3393 38.9563C80.2667 38.8879 80.2305 38.7926 80.2305 38.6703C80.2305 38.5481 80.2667 38.4532 80.3393 38.3843C80.4118 38.316 80.5087 38.2812 80.6309 38.2812C80.7532 38.2812 80.8501 38.3154 80.9226 38.3843C80.9951 38.4527 81.0314 38.5486 81.0314 38.6703C81.0314 38.7921 80.9951 38.8874 80.9226 38.9563C80.8501 39.0247 80.7527 39.0594 80.6309 39.0594C80.5092 39.0594 80.4118 39.0252 80.3393 38.9563ZM80.345 46.4335V40.7172H80.905V46.4335H80.345Z" fill="white"/>
<path id="Vector_20" d="M84.5856 45.8388L86.6894 40.7167H87.2956L84.9405 46.433H84.2203L81.8652 40.7167H82.4714L84.5866 45.8388H84.5856Z" fill="white"/>
<path id="Vector_21" d="M92.0465 41.0026C92.477 41.2771 92.8106 41.645 93.0469 42.106C93.2831 42.5671 93.4012 43.0645 93.4012 43.5981C93.4012 43.6058 93.3935 43.6856 93.3785 43.8379H88.1766C88.1994 44.2342 88.3139 44.6021 88.5195 44.9414C88.7252 45.2807 89.0112 45.5491 89.3769 45.7475C89.7427 45.9459 90.1618 46.0449 90.6348 46.0449C91.0539 46.0449 91.4523 45.9459 91.8294 45.7475C92.2066 45.5496 92.4791 45.3056 92.6469 45.016L93.1158 45.2906C92.8718 45.6869 92.533 45.9977 92.0983 46.2226C91.6637 46.4474 91.172 46.5598 90.6234 46.5598C90.0364 46.5598 89.5121 46.4324 89.0516 46.177C88.5905 45.9216 88.232 45.5672 87.9766 45.1139C87.7212 44.6606 87.5938 44.1477 87.5938 43.5763C87.5938 43.0049 87.7196 42.5148 87.9709 42.0615C88.2227 41.6082 88.575 41.2497 89.0283 40.987C89.4816 40.7238 89.9945 40.5928 90.5659 40.5928C91.1373 40.5928 91.616 40.7301 92.0465 41.0041V41.0026ZM92.864 43.3349C92.7801 42.6412 92.5402 42.0962 92.1439 41.6999C91.7476 41.3036 91.2218 41.1051 90.5659 41.1051C90.1084 41.1051 89.6971 41.2098 89.3313 41.4196C88.9656 41.6294 88.6817 41.9055 88.4796 42.2485C88.2776 42.5915 88.1729 42.9536 88.1652 43.3349H92.864Z" fill="white"/>
<path id="Vector_22" d="M97.1292 40.6021L97.0608 41.1393C97.0224 41.1321 96.9618 41.1279 96.8779 41.1279C96.3749 41.1279 95.9459 41.2865 95.5916 41.6025C95.2372 41.919 95.06 42.405 95.06 43.0603V46.4329H94.5V40.7166H95.06V41.7341C95.1973 41.4066 95.4258 41.1336 95.7459 40.9166C96.0661 40.6995 96.451 40.5907 96.9007 40.5907C96.9997 40.5907 97.0758 40.5948 97.1292 40.6021Z" fill="white"/>
<path id="Vector_23" d="M101.902 41.0026C102.332 41.2771 102.666 41.645 102.902 42.106C103.139 42.5671 103.257 43.0645 103.257 43.5981C103.257 43.6058 103.249 43.6856 103.234 43.8379H98.032C98.0548 44.2342 98.1693 44.6021 98.375 44.9414C98.5807 45.2807 98.8666 45.5491 99.2324 45.7475C99.5982 45.9459 100.017 46.0449 100.49 46.0449C100.909 46.0449 101.308 45.9459 101.685 45.7475C102.062 45.5496 102.335 45.3056 102.502 45.016L102.971 45.2906C102.727 45.6869 102.388 45.9977 101.954 46.2226C101.519 46.4474 101.027 46.5598 100.479 46.5598C99.8919 46.5598 99.3676 46.4324 98.9071 46.177C98.446 45.9216 98.0875 45.5672 97.8321 45.1139C97.5767 44.6606 97.4492 44.1477 97.4492 43.5763C97.4492 43.0049 97.5751 42.5148 97.8264 42.0615C98.0781 41.6082 98.4304 41.2497 98.8837 40.987C99.3371 40.7238 99.8499 40.5928 100.421 40.5928C100.993 40.5928 101.471 40.7301 101.902 41.0041V41.0026ZM102.719 43.3349C102.636 42.6412 102.396 42.0962 101.999 41.6999C101.603 41.3036 101.077 41.1051 100.421 41.1051C99.9639 41.1051 99.5526 41.2098 99.1868 41.4196C98.8211 41.6294 98.5372 41.9055 98.3351 42.2485C98.1331 42.5915 98.0284 42.9536 98.0206 43.3349H102.719Z" fill="white"/>
<path id="Vector_24" d="M109.292 38.4298H109.841V46.4329H109.292V45.118C109.048 45.5599 108.715 45.9127 108.292 46.1754C107.869 46.4386 107.398 46.5697 106.88 46.5697C106.362 46.5697 105.847 46.436 105.405 46.1697C104.963 45.9029 104.614 45.5429 104.359 45.089C104.104 44.6357 103.977 44.1342 103.977 43.5856C103.977 43.037 104.104 42.5355 104.359 42.0822C104.615 41.6289 104.963 41.2688 105.405 41.002C105.847 40.7352 106.339 40.6021 106.88 40.6021C107.422 40.6021 107.869 40.7337 108.292 40.9963C108.715 41.2595 109.048 41.6118 109.292 42.0537V38.4293V38.4298ZM108.115 45.7014C108.481 45.4879 108.768 45.1947 108.978 44.8212C109.187 44.4477 109.292 44.0363 109.292 43.5866C109.292 43.137 109.188 42.7256 108.978 42.3521C108.768 41.9786 108.481 41.6854 108.115 41.4719C107.749 41.2585 107.349 41.1517 106.915 41.1517C106.48 41.1517 106.07 41.2585 105.708 41.4719C105.346 41.6854 105.06 41.9791 104.851 42.3521C104.641 42.7256 104.537 43.1375 104.537 43.5866C104.537 44.0358 104.641 44.4482 104.851 44.8212C105.06 45.1947 105.346 45.4885 105.708 45.7014C106.071 45.9148 106.473 46.0215 106.915 46.0215C107.356 46.0215 107.749 45.9148 108.115 45.7014Z" fill="white"/>
</g>
</g>
</svg>
