<svg width="24" height="24" viewBox="0 0 24 24" fill="none" xmlns="http://www.w3.org/2000/svg">
<g clip-path="url(#clip0_1622_3431)">
<path d="M24 4.35294C23.1166 4.76471 22.1644 5.03529 21.1778 5.16471C22.1874 4.54118 22.9675 3.55294 23.3346 2.36471C22.3824 2.95294 21.327 3.36471 20.2141 3.6C19.3078 2.58824 18.0344 2 16.5889 2C13.8929 2 11.6902 4.25882 11.6902 7.04706C11.6902 7.44706 11.7361 7.8353 11.8164 8.2C7.73231 7.98824 4.0956 5.97647 1.67495 2.92941C1.25048 3.67059 1.00956 4.54118 1.00956 5.45882C1.00956 7.21177 1.86998 8.76471 3.20077 9.64706C2.38623 9.64706 1.62906 9.41177 0.963671 9.05882V9.09412C0.963671 11.5412 2.66157 13.5882 4.91013 14.0471C4.18822 14.2497 3.43032 14.2778 2.69599 14.1294C3.00758 15.1323 3.61782 16.0099 4.44094 16.6387C5.26405 17.2676 6.25864 17.6161 7.2849 17.6353C5.54527 19.0476 3.38891 19.811 1.17017 19.8C0.780115 19.8 0.390057 19.7765 0 19.7294C2.17973 21.1647 4.77247 22 7.54876 22C16.5889 22 21.5564 14.3059 21.5564 7.63529C21.5564 7.41177 21.5564 7.2 21.5449 6.97647C22.5086 6.27059 23.3346 5.37647 24 4.35294Z" fill="black"/>
</g>
<defs>
<clipPath id="clip0_1622_3431">
<rect width="24" height="24" fill="white"/>
</clipPath>
</defs>
</svg>
