<svg width="20" height="20" viewBox="0 0 20 20" fill="none" xmlns="http://www.w3.org/2000/svg">
<path d="M10.325 1.78654C10.2344 1.70907 10.1192 1.6665 10 1.6665C9.88082 1.6665 9.76557 1.70907 9.675 1.78654L2.5 7.93652V15.1665C2.5 15.5643 2.65804 15.9459 2.93934 16.2272C3.22064 16.5085 3.60218 16.6665 4 16.6665H8C8.13261 16.6665 8.25979 16.6138 8.35355 16.5201C8.44732 16.4263 8.5 16.2991 8.5 16.1665V13.1665C8.5 12.7687 8.65804 12.3872 8.93934 12.1059C9.22064 11.8245 9.60218 11.6665 10 11.6665C10.3978 11.6665 10.7794 11.8245 11.0607 12.1059C11.342 12.3872 11.5 12.7687 11.5 13.1665V16.1665C11.5 16.2991 11.5527 16.4263 11.6464 16.5201C11.7402 16.6138 11.8674 16.6665 12 16.6665H16C16.3978 16.6665 16.7794 16.5085 17.0607 16.2272C17.342 15.9459 17.5 15.5643 17.5 15.1665V7.93652L10.325 1.78654Z" fill="black"/>
</svg>
